<svg version="1.1" id="Layer_1" xmlns="http://www.w3.org/2000/svg" xmlns:xlink="http://www.w3.org/1999/xlink" x="0px" y="0px"
	 width="100%" viewBox="0 0 1000 1000" enable-background="new 0 0 1000 1000" xml:space="preserve">
<path fill="transparent" opacity="1.000000" stroke="none" 
	d="
M562.000000,1001.000000 
	C376.166656,1001.000000 190.833328,1000.986816 5.500054,1001.093689 
	C1.750720,1001.095825 0.905755,1000.249084 0.906896,996.500000 
	C1.007416,666.166687 1.007416,335.833344 0.906896,5.500028 
	C0.905755,1.750898 1.750897,0.905753 5.500028,0.906894 
	C335.833344,1.007430 666.166687,1.007430 996.500000,0.906894 
	C1000.249084,0.905753 1001.094238,1.750897 1001.093140,5.500028 
	C1000.992615,335.833344 1000.992615,666.166687 1001.093140,996.500000 
	C1001.094299,1000.249084 1000.249390,1001.096924 996.499939,1001.094055 
	C851.833313,1000.983093 707.166687,1001.000000 562.000000,1001.000000 
z"/>
<path fill="#FDFDF9" opacity="1.000000" stroke="none" 
	d="
M182.769974,410.688965 
	C193.740219,381.210663 207.035583,353.407471 226.852127,329.186432 
	C247.953232,303.395325 274.568451,286.391144 307.676971,280.972656 
	C345.338745,274.808990 375.928864,287.875061 400.048157,316.989014 
	C401.182159,318.357849 402.265411,319.768646 404.076202,322.044647 
	C405.095978,314.015961 406.026825,307.024994 406.866364,300.023102 
	C412.176117,255.738693 417.479523,211.453522 422.757660,167.165344 
	C427.188934,129.983475 431.583191,92.797211 435.993225,55.612831 
	C436.220001,53.701084 435.713287,51.446217 439.227478,52.516735 
	C470.806061,62.136349 503.317749,68.747940 533.779785,81.962570 
	C555.009094,91.171944 574.866028,102.636818 590.957825,119.485489 
	C621.951721,151.936981 628.281494,189.937180 614.393005,231.751358 
	C607.772888,251.682648 596.366577,269.449127 586.970337,288.109650 
	C571.211182,319.406555 555.056396,350.505463 538.867310,381.583099 
	C536.898438,385.362579 538.038330,386.436401 541.499268,386.846741 
	C545.143311,387.278809 547.748413,388.678802 547.952026,392.831177 
	C548.151978,396.907013 550.100586,396.439819 553.113464,395.141205 
	C613.326172,369.188568 673.583923,343.340668 733.827942,317.460693 
	C762.483765,305.150604 791.162476,292.892548 819.739380,280.401703 
	C823.340881,278.827484 824.314331,279.400177 825.185547,283.077911 
	C831.541504,309.908752 839.766174,336.296875 844.484619,363.513977 
	C849.163879,390.505371 850.536072,417.622284 842.667603,444.191162 
	C829.740845,487.839813 799.569824,512.226562 755.253723,520.025696 
	C743.074158,522.169067 730.721008,522.036194 718.452881,523.014954 
	C717.202515,523.114624 715.845520,522.636047 714.300171,523.855896 
	C721.632080,529.251160 728.667236,534.715942 735.092957,540.910217 
	C760.702515,565.597534 776.584656,595.862366 785.999207,629.800476 
	C796.196899,666.561890 798.730652,704.132629 797.531189,742.072571 
	C796.900208,762.033081 796.499634,782.046814 791.017090,801.451843 
	C778.012329,847.480957 752.910828,884.608398 710.729919,908.739197 
	C695.807434,917.276062 679.020630,921.422241 662.994324,927.325928 
	C642.170044,934.997009 621.249207,942.405884 599.438171,950.263245 
	C601.631348,943.059570 603.582153,936.629028 605.547058,930.202759 
	C610.742371,913.210632 615.849304,896.190430 621.223572,879.255066 
	C622.287537,875.902222 621.678833,875.311829 618.263733,874.847534 
	C580.112793,869.661743 543.264526,860.263672 509.854431,840.212830 
	C464.797546,813.172302 438.152252,772.984680 426.097839,722.481506 
	C420.885101,700.642090 419.151306,678.436462 420.276917,656.047302 
	C420.474518,652.116638 419.124786,651.017822 415.730316,650.191589 
	C382.481354,642.097351 349.276245,633.823120 316.026672,625.731628 
	C312.612335,624.900757 310.837067,623.525024 309.854279,619.882202 
	C302.502991,592.634399 294.849792,565.468079 287.328949,538.265747 
	C286.736420,536.122742 286.829224,534.033875 283.322815,535.476624 
	C251.911011,548.401306 220.042267,549.236023 187.698349,539.025513 
	C177.568985,535.827759 167.201324,533.383606 156.936615,530.617249 
	C155.086456,530.118591 153.746460,529.796631 154.262238,527.066956 
	C160.401428,494.575317 165.302414,461.811615 175.958603,430.334930 
	C178.139297,423.893463 180.409103,417.482178 182.769974,410.688965 
z"/>
<path fill="#F0C028" opacity="1.000000" stroke="none" 
	d="
M716.065430,878.786743 
	C695.649414,894.646729 670.850220,899.974915 647.683411,908.997742 
	C644.893799,910.084167 642.067383,911.086304 639.219055,912.006897 
	C638.026245,912.392517 636.702393,913.595947 635.512817,912.508789 
	C634.340881,911.437744 635.246460,910.027466 635.628418,908.784790 
	C640.417175,893.203613 645.193604,877.618591 650.004333,862.044189 
	C651.974609,855.665405 651.755310,855.510620 645.079285,854.995789 
	C605.644226,851.954712 567.151367,844.881775 531.589966,826.574463 
	C484.536346,802.350952 457.450623,763.218628 446.865692,711.904297 
	C441.939087,688.020630 441.362366,664.009216 444.139862,639.880493 
	C444.648132,635.465027 443.350830,633.904053 439.010742,632.857849 
	C403.602997,624.322632 368.268799,615.482544 332.902252,606.775696 
	C330.381805,606.155212 329.067383,604.864685 328.354340,602.248352 
	C321.355591,576.569458 314.222046,550.927246 307.109222,525.279480 
	C305.330872,518.866943 303.160889,512.541626 301.780914,506.046661 
	C300.680573,500.867950 298.762024,501.478210 295.224579,503.825531 
	C286.876343,509.364899 277.959351,513.795105 268.429443,517.049500 
	C244.989273,525.054199 221.473694,525.474365 197.768860,518.369324 
	C192.991837,516.937500 188.139374,515.753845 183.308304,514.507629 
	C181.140121,513.948364 179.760162,513.107422 180.205048,510.401886 
	C187.753616,464.494598 200.061356,420.070801 221.440948,378.503845 
	C230.322128,361.236725 240.748184,344.909821 255.152069,331.716766 
	C277.974304,310.813110 304.353271,298.593597 336.057739,303.023987 
	C356.365692,305.861816 372.045715,317.117310 384.187836,333.404205 
	C392.137299,344.067322 397.667419,355.926971 401.128418,368.742279 
	C401.796204,371.215027 402.914551,372.625397 405.514099,373.471313 
	C420.312073,378.286621 420.171967,378.351349 421.970642,363.191833 
	C426.205078,327.503357 430.607208,291.834747 434.853729,256.147675 
	C439.965515,213.188812 444.983185,170.218765 450.048401,127.254379 
	C451.704041,113.210884 453.448425,99.177330 454.996704,85.122101 
	C455.343597,81.972801 456.175140,80.528305 459.668610,81.554161 
	C484.869720,88.954437 510.505219,95.036484 534.174377,106.963097 
	C552.652283,116.273918 569.795898,127.371178 582.458496,144.092926 
	C598.132812,164.791885 601.870300,188.035995 596.451416,213.177200 
	C593.095398,228.747406 585.239502,242.305801 578.114258,256.203918 
	C554.724976,301.825684 531.246399,347.401642 507.814514,393.001526 
	C504.249512,399.939209 504.275574,399.968750 511.840729,402.138092 
	C514.716614,402.962738 517.577820,404.141205 520.512146,404.397552 
	C526.896851,404.955292 529.679199,408.558075 530.580383,414.496063 
	C531.026733,417.437805 532.366699,420.249664 532.757629,423.192627 
	C533.330750,427.506622 535.232117,427.328278 538.554077,425.877289 
	C556.850037,417.885590 575.223816,410.072388 593.566345,402.187256 
	C663.741638,372.020020 733.919495,341.858734 804.074951,311.645508 
	C807.177124,310.309509 808.903198,310.078186 809.935486,314.183899 
	C816.952026,342.088989 825.116943,369.801941 825.572876,398.871033 
	C825.972656,424.362335 821.808289,448.727020 804.947815,469.194092 
	C790.860596,486.294708 771.942566,494.428070 750.600037,497.970520 
	C739.887756,499.748596 729.046021,499.918549 718.265747,500.566986 
	C668.568909,503.556244 618.851135,506.196869 569.140198,508.951202 
	C565.980957,509.126282 562.802429,509.068665 559.660828,509.391907 
	C558.242737,509.537811 555.900391,509.330933 556.721130,512.127319 
	C557.323303,514.179382 556.654724,517.205383 560.340027,516.955200 
	C561.668701,516.864990 563.007751,516.855957 564.324890,516.680786 
	C602.783752,511.564972 640.450989,514.108276 676.603516,529.153564 
	C707.063660,541.829895 730.080811,563.108276 746.286377,591.738342 
	C762.316223,620.058105 769.605347,650.958435 773.151917,683.016785 
	C775.597778,705.125305 775.158997,727.262146 774.925232,749.415161 
	C774.549133,785.050598 766.265442,818.281616 745.123840,847.633972 
	C737.397339,858.361206 728.805664,868.257935 718.243896,876.804565 
	C717.755676,877.214417 717.518982,877.416016 717.148560,877.821777 
	C716.975281,877.979553 717.000000,878.000000 716.990112,877.987427 
	C716.772766,878.231323 716.538269,878.459839 716.065430,878.786743 
z"/>
<path fill="#FEF4B9" opacity="1.000000" stroke="none" 
	d="
M717.213867,877.910034 
	C717.157837,877.702881 717.340393,877.426147 717.777405,877.104309 
	C717.947144,877.399963 717.754028,877.660400 717.213867,877.910034 
z"/>
<path fill="#FEF4B9" opacity="1.000000" stroke="none" 
	d="
M716.118042,878.866882 
	C716.061829,878.644714 716.269348,878.376282 716.728516,878.041382 
	C716.780640,878.256775 716.581177,878.538696 716.118042,878.866882 
z"/>
<path fill="#030202" opacity="1.000000" stroke="none" 
	d="
M592.182312,199.458862 
	C589.212952,226.234482 574.455383,247.726379 562.963074,270.467316 
	C541.059021,313.811066 518.695496,356.923218 496.356110,400.045227 
	C494.337250,403.942322 495.269928,405.039703 499.088318,405.916229 
	C505.564636,407.402863 511.914276,409.440491 518.389221,410.934113 
	C521.484253,411.648102 523.206848,412.951996 523.898865,416.223938 
	C525.101807,421.911499 526.943054,427.462067 528.217407,433.137238 
	C529.002563,436.633972 530.190002,437.000885 533.517761,435.561920 
	C584.645020,413.453461 635.844299,391.511566 687.022888,369.521698 
	C724.451660,353.439728 761.895447,337.391937 799.269470,321.183502 
	C803.166260,319.493530 804.367615,320.035492 805.450439,324.303192 
	C811.385437,347.694977 817.612000,371.011322 818.647522,395.300751 
	C819.414307,413.287750 817.721619,430.935669 810.256409,447.570374 
	C798.725769,473.264160 777.844788,486.568176 750.855286,490.897491 
	C729.450439,494.331024 707.711487,494.068146 686.120911,495.397583 
	C645.079712,497.924713 604.018494,500.127319 562.965393,502.460724 
	C558.810181,502.696930 554.655396,502.998566 550.496460,503.089508 
	C548.299622,503.137512 547.033752,503.333679 547.864868,506.126373 
	C549.475464,511.538788 550.855286,517.023254 552.199402,522.510071 
	C552.790222,524.921997 554.114136,525.000854 556.242920,524.651245 
	C576.866577,521.263550 597.596191,520.000427 618.447449,522.050415 
	C661.060852,526.239990 698.701172,540.689331 726.539490,574.986389 
	C745.561218,598.421265 756.019653,625.741516 761.952820,654.975464 
	C769.196899,690.668701 769.215881,726.699280 767.306091,762.907959 
	C765.561157,795.991455 754.370911,825.205933 733.930298,850.999390 
	C719.566895,869.124268 701.973083,882.883850 679.705200,890.227112 
	C669.917419,893.454895 660.313416,897.237061 650.588379,900.660767 
	C648.960083,901.233826 647.391479,902.452271 645.009827,901.747314 
	C650.313965,884.411621 655.592712,867.159119 660.981262,849.547729 
	C650.976440,848.672302 641.268982,848.013733 631.607117,846.942932 
	C597.836182,843.200195 564.958557,836.091919 534.481812,820.321167 
	C488.587585,796.572144 462.837494,758.120239 453.027191,708.188904 
	C448.165283,683.443115 447.959747,658.555481 451.906311,633.665161 
	C452.486511,630.005981 451.279602,628.821594 447.904266,627.997070 
	C411.397247,619.078918 374.935577,609.974854 338.427704,601.060120 
	C335.465179,600.336670 334.551605,598.751099 333.820862,596.087280 
	C324.585266,562.420349 315.224609,528.787842 305.911224,495.142303 
	C304.193542,488.937042 304.221191,488.923370 299.234283,492.710968 
	C279.423279,507.757629 257.140533,516.034241 232.233643,516.766418 
	C217.547394,517.198181 203.613007,513.025024 189.679062,509.046417 
	C186.819839,508.230042 188.010498,506.121674 188.270416,504.555481 
	C192.608658,478.413757 198.992035,452.793060 207.816757,427.784271 
	C216.932907,401.949524 227.901459,377.043793 244.117218,354.758270 
	C261.122559,331.387634 282.968567,315.138275 311.923920,309.956879 
	C337.913635,305.306183 359.083221,314.283417 375.912476,334.051727 
	C385.913971,345.799866 392.089417,359.587250 395.607025,374.526123 
	C396.243256,377.228119 397.321228,378.397186 399.892059,379.051727 
	C407.301239,380.938019 414.718018,382.851654 421.989563,385.195923 
	C425.371002,386.286072 426.197571,385.449097 426.567719,382.186951 
	C428.613373,364.158173 430.843445,346.150360 432.995026,328.133545 
	C436.824890,296.063202 440.644806,263.991638 444.467010,231.920364 
	C447.993225,202.332779 451.516266,172.744797 455.042114,143.157150 
	C457.051514,126.294945 459.087799,109.435883 461.042358,92.567329 
	C461.275452,90.555359 461.751923,89.407959 464.085114,90.038513 
	C497.076691,98.954781 529.940186,108.222397 557.771179,129.366119 
	C574.142395,141.803650 586.445068,157.107986 590.476685,177.909866 
	C590.951294,180.358795 591.239258,182.843887 591.784363,185.665222 
	C593.072693,190.329483 592.273438,194.709854 592.182312,199.458862 
z"/>
<path fill="#E0B836" opacity="1.000000" stroke="none" 
	d="
M592.205444,200.010544 
	C591.895935,195.552597 591.852356,191.243393 591.881836,186.476227 
	C593.843811,190.669220 593.143982,195.414764 592.205444,200.010544 
z"/>
<path fill="#54267D" opacity="1.000000" stroke="none" 
	d="
M506.887909,753.549194 
	C526.378662,748.196106 543.848633,738.948730 560.449585,728.012512 
	C596.369812,704.349487 627.347046,675.438538 652.697571,640.172485 
	C655.389221,638.559631 656.571411,640.657288 658.045166,641.814453 
	C666.727173,648.631592 673.618774,657.190002 680.600952,665.593750 
	C689.857727,676.735046 697.382507,689.061401 703.863159,702.015442 
	C704.382019,703.052551 704.930969,704.086975 705.018921,705.645874 
	C699.078735,716.270264 691.122192,724.949585 683.039917,733.480042 
	C658.057251,759.847839 629.983093,782.110657 596.885986,797.592896 
	C591.167603,800.267822 585.283386,802.518433 578.806763,804.123535 
	C573.199585,804.468933 568.694336,801.974487 564.141296,800.107910 
	C541.960754,791.014832 523.471924,777.010681 509.040527,757.782654 
	C508.148590,756.594238 507.144318,755.446045 506.887909,753.549194 
z"/>
<path fill="#552580" opacity="1.000000" stroke="none" 
	d="
M291.512787,339.753021 
	C294.131836,335.987610 298.356140,336.023834 301.792236,334.689240 
	C323.111694,326.408783 341.444122,330.880737 356.350922,347.933350 
	C362.089569,354.498108 366.391998,362.025665 369.831207,370.007141 
	C372.132690,375.348267 374.036682,380.847595 375.483276,386.506317 
	C375.960602,388.373444 375.648529,389.540436 374.284210,390.902679 
	C355.069153,410.088013 335.920502,429.339905 316.730255,448.550171 
	C315.683716,449.597809 314.412598,450.421143 313.064453,451.632812 
	C310.323059,453.090424 310.164215,451.051422 309.881866,449.524170 
	C309.457825,447.230347 309.403992,444.844635 309.727722,442.566101 
	C310.732788,435.491425 310.279022,428.303101 311.557617,421.195526 
	C309.439850,427.026794 307.229736,432.736908 304.218292,438.108704 
	C301.047211,443.765259 297.721710,449.323975 294.036713,454.661713 
	C290.431671,459.883698 286.058594,464.426666 281.560486,468.874725 
	C277.030853,473.354004 271.886322,477.043793 266.453278,480.238159 
	C253.200851,488.029846 239.047546,492.727051 223.048279,491.453674 
	C222.041977,491.424438 221.391876,491.567749 220.734131,491.649414 
	C214.777542,492.388947 213.489410,491.305786 213.573669,485.249878 
	C214.886414,483.981262 214.682999,482.387299 215.490402,480.815491 
	C221.688217,457.623627 230.206284,435.635620 239.198929,413.822540 
	C246.180283,396.888245 253.865982,380.307068 265.040619,365.619720 
	C271.590485,357.010864 278.580688,348.805817 287.696838,342.144623 
	C287.951477,341.870392 287.922028,341.965576 287.908508,341.917633 
	C288.216919,341.779968 288.476318,341.600128 288.802856,341.127625 
	C288.932465,340.925171 288.993439,340.983704 288.973450,340.946411 
	C289.672211,340.479401 290.460632,340.203644 291.512787,339.753021 
z"/>
<path fill="#54267D" opacity="1.000000" stroke="none" 
	d="
M624.298584,617.780029 
	C607.119080,643.744141 585.787231,665.236511 561.363037,683.749817 
	C544.206299,696.754456 526.142090,708.249451 505.902893,715.929077 
	C501.416321,717.631470 496.708496,718.750793 491.718231,720.103638 
	C489.439697,719.176331 489.107452,717.252747 488.472473,715.583191 
	C480.388580,694.329102 474.481476,672.562683 473.036865,649.747437 
	C472.804199,646.072510 473.311768,642.449890 473.779480,638.435669 
	C472.267761,631.935120 474.733948,627.638489 479.168671,623.343140 
	C494.085999,608.894897 508.619690,594.050659 523.328003,579.385986 
	C524.850037,577.868469 526.558411,576.537964 528.465027,574.950073 
	C530.764343,573.563049 532.869385,573.962463 535.030334,574.300842 
	C563.776062,578.803101 589.684570,590.120789 613.347961,606.840576 
	C616.057190,608.754822 618.849792,610.558289 621.418396,612.664673 
	C622.935913,613.909119 624.747986,615.004150 624.298584,617.780029 
z"/>
<path fill="#552680" opacity="1.000000" stroke="none" 
	d="
M485.111511,308.635742 
	C483.700165,310.759216 482.928833,312.739166 482.803101,315.303925 
	C482.755188,316.019745 482.626129,316.328949 482.249573,316.804260 
	C482.015076,317.389404 481.940857,317.773438 481.854004,318.450836 
	C481.784058,319.075073 481.640076,319.362549 481.273438,319.808929 
	C481.057159,320.404755 480.976837,320.798187 480.872742,321.492065 
	C480.371094,323.013458 480.369354,324.399414 479.374298,325.777527 
	C473.262146,344.848083 467.305023,363.637177 461.432800,382.452789 
	C459.552490,388.477509 459.655273,388.509583 452.884277,386.608582 
	C451.238800,384.419922 451.684967,382.260895 451.910828,380.113831 
	C455.721283,343.888458 459.919159,307.705322 463.669891,271.472839 
	C465.240570,256.300323 467.182220,241.162643 469.027283,225.578369 
	C469.062531,224.270370 469.272705,223.434219 469.583405,222.187775 
	C469.888916,220.959427 469.994507,220.129089 469.998352,218.864838 
	C470.654938,210.930359 471.841187,203.475006 472.505005,195.546585 
	C472.691864,193.781631 472.970215,192.453094 473.674042,190.859222 
	C473.944885,190.007141 473.939819,189.453659 473.943970,188.483612 
	C473.893829,184.231323 474.257355,180.440598 475.297058,176.324677 
	C475.594940,174.071915 475.476990,172.197693 475.526794,169.932983 
	C477.323029,166.211685 475.750122,162.367752 477.182251,158.598038 
	C478.829193,144.917282 480.424530,131.616364 482.092224,118.324539 
	C482.541840,114.741104 485.045898,115.922607 487.008698,116.554192 
	C494.582092,118.991165 502.233154,121.219131 509.755310,124.746376 
	C522.683350,136.273651 529.990479,150.548737 533.243774,167.012848 
	C536.725159,184.631302 532.691895,201.449265 527.433105,218.086639 
	C516.841431,251.595856 506.915192,285.309418 496.439545,318.853638 
	C489.388153,341.432983 482.445923,364.045441 475.505646,386.658813 
	C475.162170,387.777985 474.776947,388.876312 473.733337,390.095123 
	C470.501160,391.726990 468.541290,391.359406 468.607788,387.174561 
	C471.915894,373.358124 475.144623,359.952759 478.355682,346.543213 
	C478.703125,345.092346 478.948334,343.617004 479.265137,341.754517 
	C479.566467,339.730591 480.471924,338.275879 480.765686,336.303040 
	C481.017487,335.617157 481.084045,335.232819 481.158508,334.555847 
	C481.212769,333.935181 481.349396,333.650452 481.693298,333.199799 
	C483.247437,325.581268 484.392609,318.100769 487.201111,310.622375 
	C487.472961,302.315186 490.416962,295.011322 492.371368,287.487457 
	C493.078125,284.766724 494.058838,282.114990 494.378662,278.910583 
	C496.381439,274.333740 497.070068,269.711761 498.545227,265.675934 
	C496.943329,269.337219 496.617584,273.765991 494.584351,277.999817 
	C492.301544,288.626862 489.077057,298.570190 485.111511,308.635742 
z"/>
<path fill="#552680" opacity="1.000000" stroke="none" 
	d="
M738.689209,369.247681 
	C755.130310,362.280853 771.375671,355.526947 787.581787,348.680145 
	C790.311829,347.526764 791.616638,348.305176 792.191223,351.069397 
	C793.033142,355.119385 793.970825,359.149475 794.864014,363.584442 
	C794.768250,364.159760 794.676147,364.338715 794.755127,364.766327 
	C794.964600,365.454071 795.002991,365.893097 795.032349,366.662781 
	C794.808716,386.701630 788.289062,403.572723 772.337402,415.884705 
	C766.498047,420.391693 759.602966,423.159912 752.455627,424.980530 
	C717.582092,433.863831 682.797974,443.090027 647.959045,452.103821 
	C616.513489,460.239716 585.073120,468.396484 553.625732,476.525757 
	C551.700623,477.023407 549.781189,477.683838 547.361938,477.174011 
	C546.669434,476.227295 546.347473,475.446228 546.030151,474.334167 
	C546.193726,473.836670 546.352661,473.670166 546.654297,473.189209 
	C546.797058,472.874786 546.834167,472.834473 546.856262,472.818268 
	C547.087219,472.704956 547.296082,472.607819 547.755615,472.272858 
	C579.744690,463.054108 611.483032,454.073120 643.595825,445.000763 
	C650.066528,440.941864 657.333984,440.478180 664.029907,438.318665 
	C667.587219,437.171417 671.217957,435.963104 675.404297,435.610657 
	C680.639160,433.762634 685.793030,432.978638 690.667419,431.285461 
	C686.007019,432.970245 681.037292,433.616821 675.984741,435.358368 
	C667.212341,436.999237 659.123230,439.791290 650.769043,441.510712 
	C648.019287,442.076660 645.303406,442.615204 642.100586,442.657104 
	C627.978699,445.051758 614.546753,448.689789 600.993347,451.779999 
	C584.199585,455.609039 567.395081,459.391235 550.608337,463.250671 
	C542.735352,465.060730 542.749268,465.121246 541.836304,456.591614 
	C542.486450,453.878998 544.588074,453.447235 546.377563,452.658905 
	C583.227844,436.425049 620.071838,420.176575 656.998718,404.117767 
	C665.224243,400.540649 673.382507,396.789062 682.145264,393.522369 
	C690.675476,389.440063 699.159119,386.181274 707.692322,382.172943 
	C707.958862,381.918854 707.995605,381.991455 707.961853,381.968689 
	C708.705139,381.349365 709.669861,381.618774 710.761108,381.142090 
	C710.997192,380.901337 710.985657,380.977997 710.948120,380.968445 
	C711.410461,380.605713 712.013550,380.529480 712.781494,380.125366 
	C712.989075,379.912018 712.992859,379.986877 712.964722,379.962097 
	C715.191040,379.291931 717.364807,378.437378 719.725769,377.169128 
	C719.977600,376.923035 719.994629,376.990417 719.962891,376.976196 
	C720.418457,376.597473 721.017517,376.529449 721.783752,376.138855 
	C721.995300,375.933990 721.999146,375.998230 721.967651,375.991760 
	C723.382935,375.240204 725.077942,375.211304 726.756165,374.164673 
	C727.009583,373.926575 727.004578,373.998047 726.968872,373.996033 
	C727.691528,373.318420 728.701965,373.645996 729.765137,373.066101 
	C730.396118,372.517761 730.814148,372.239471 731.503357,371.970947 
	C732.315430,371.626282 732.946838,371.531738 733.776245,371.139343 
	C734.000610,370.917511 734.000732,370.986542 733.966919,370.979309 
	C734.696106,370.338837 735.664490,370.618652 736.760803,370.155853 
	C737.003052,369.921326 736.989929,369.990509 736.957336,369.977295 
	C737.391113,369.634125 737.932678,369.522919 738.689209,369.247681 
z"/>
<path fill="#39245E" opacity="1.000000" stroke="none" 
	d="
M546.986450,477.401367 
	C564.769104,472.341156 582.543091,467.659973 600.325806,463.011902 
	C611.065308,460.204742 621.820374,457.457245 632.564697,454.668365 
	C652.618896,449.463043 672.676941,444.272430 692.721008,439.028595 
	C714.034790,433.452576 735.483215,428.325226 756.598938,422.076477 
	C778.573853,415.573425 788.978271,398.847839 792.976807,377.331024 
	C793.579346,374.088684 793.958496,370.804871 794.732178,367.266846 
	C797.297974,371.750488 797.301880,377.037689 797.601135,382.021118 
	C798.516418,397.263428 799.265991,412.580566 794.318787,427.463104 
	C786.977173,449.548340 771.170044,461.709229 748.881714,465.922119 
	C736.013367,468.354431 722.873474,468.765259 709.846497,469.983459 
	C691.861206,471.665253 673.865784,473.239075 655.871399,474.822388 
	C643.484558,475.912262 631.088989,476.903656 618.703125,478.003754 
	C601.042786,479.572296 583.388489,481.208099 565.729980,482.797180 
	C561.271790,483.198364 556.791382,483.003418 552.335327,483.860138 
	C547.589905,484.772522 547.812256,480.678406 546.986450,477.401367 
z"/>
<path fill="#39245E" opacity="1.000000" stroke="none" 
	d="
M472.955383,390.415466 
	C479.040527,370.228271 484.982788,350.372009 491.084381,330.564789 
	C496.785400,312.057861 502.762512,293.635712 508.424652,275.117065 
	C515.779907,251.061050 523.322693,227.052414 530.093018,202.830048 
	C538.307434,173.440979 530.208130,147.910934 510.043884,125.340973 
	C529.661682,132.082718 547.040161,142.681381 559.170532,160.015717 
	C569.728394,175.102982 570.328918,191.975784 564.845825,209.184006 
	C560.182068,223.821060 552.792419,237.289276 546.365356,251.158646 
	C526.514526,293.995972 506.483276,336.749695 486.265198,379.769562 
	C485.056671,380.947418 484.293915,382.001587 484.052063,383.689941 
	C483.776581,384.821228 483.503021,385.622681 483.078308,386.708923 
	C482.595581,387.350677 482.260345,387.711761 482.018494,388.132660 
	C479.032715,393.329407 479.035217,393.330841 472.955383,390.415466 
z"/>
<path fill="#312355" opacity="1.000000" stroke="none" 
	d="
M705.329651,705.859497 
	C701.231995,699.426208 697.526917,692.788391 693.619690,686.271851 
	C687.570679,676.183228 680.543579,666.796265 672.599243,658.122925 
	C666.699707,651.682068 661.117004,644.887451 653.310364,640.023987 
	C659.133728,630.322754 665.701660,620.901062 670.639954,610.526123 
	C675.790039,599.705994 680.018005,588.552979 682.086365,576.670410 
	C683.259216,569.932373 683.450745,569.875427 689.238220,573.807800 
	C708.482300,586.883301 719.872681,605.728088 728.137817,626.858032 
	C728.985657,629.025513 729.584778,631.317078 730.652588,633.367004 
	C736.071167,643.769104 733.072998,653.610352 729.033630,663.515869 
	C722.912964,678.525269 715.392944,692.732056 705.329651,705.859497 
z"/>
<path fill="#312355" opacity="1.000000" stroke="none" 
	d="
M624.422241,617.948975 
	C623.661865,614.392517 620.168640,613.343933 617.785339,611.591736 
	C595.861328,595.473694 572.024902,583.315063 545.214722,577.610535 
	C540.067993,576.515381 534.836487,575.818542 529.196899,574.858643 
	C536.660767,566.572021 544.577637,558.370117 552.479980,550.154297 
	C555.337646,547.183228 559.325500,547.742554 562.785828,547.214050 
	C569.158813,546.240784 575.651306,546.089661 582.121521,545.804565 
	C603.440002,544.865295 624.402649,546.785278 645.158569,551.812439 
	C649.541809,552.874146 650.404175,554.535522 649.699341,558.616699 
	C645.956055,580.292603 636.811707,599.642029 624.422241,617.948975 
z"/>
<path fill="#53277C" opacity="1.000000" stroke="none" 
	d="
M679.331482,864.229126 
	C682.717651,851.899780 686.285828,839.843750 689.833801,827.403687 
	C686.916016,826.111511 683.916443,826.074280 680.542114,825.966431 
	C667.867004,824.288574 655.796875,821.577454 643.874023,818.183777 
	C642.146057,817.691833 640.279053,817.468994 638.954712,815.538513 
	C638.560059,813.438416 639.773682,812.780579 640.937500,812.110229 
	C668.692261,796.124146 692.672668,775.586304 713.854248,751.669800 
	C714.624939,750.799683 715.460144,749.986755 716.536987,748.950317 
	C719.945190,749.286621 719.321777,751.884033 719.340698,753.828064 
	C719.434204,763.457214 719.895630,773.112732 718.272400,782.676147 
	C717.186096,789.076172 717.016907,795.566040 716.439453,802.007446 
	C714.784485,820.468811 706.551697,835.936462 695.319580,850.100281 
	C691.505859,854.909424 687.542175,859.636658 682.257629,863.636353 
	C681.499268,864.222290 681.048706,864.528076 680.316956,864.867188 
	C679.861633,864.767822 679.687561,864.635132 679.331482,864.229126 
z"/>
<path fill="#F6C019" opacity="1.000000" stroke="none" 
	d="
M418.690186,526.309753 
	C407.506287,515.218323 396.572540,504.376801 384.932343,492.834778 
	C398.368713,489.141083 410.637299,485.759552 422.911102,482.397034 
	C433.638245,479.458252 444.397430,476.631775 455.086121,473.559723 
	C458.391144,472.609802 459.778351,472.674805 458.658844,476.701263 
	C452.521545,498.775299 446.442810,520.866211 440.506775,542.994995 
	C439.463257,546.885132 438.310486,546.021362 436.219360,543.879578 
	C430.522614,538.044800 424.708160,532.325012 418.690186,526.309753 
z"/>
<path fill="#312355" opacity="1.000000" stroke="none" 
	d="
M682.310547,863.919312 
	C684.313904,858.421814 689.434265,855.210510 693.020081,850.699829 
	C702.275513,839.056946 710.074097,826.753601 713.374329,812.091675 
	C714.639160,806.472412 715.519531,800.701111 715.875732,794.955811 
	C716.726135,781.238525 718.990356,767.587524 718.027039,753.776001 
	C717.924133,752.301575 718.282166,750.766357 717.123779,749.072571 
	C722.521790,740.615845 729.172058,733.159790 734.286377,724.583496 
	C737.478394,719.230957 740.801392,713.956421 744.932068,708.840210 
	C744.932068,714.729126 745.428406,720.667847 744.842651,726.497864 
	C742.756165,747.264954 740.777405,768.098083 736.840332,788.582947 
	C730.672058,820.676514 714.247986,846.131104 685.400024,862.718140 
	C684.543030,863.210876 683.583191,863.524719 682.310547,863.919312 
z"/>
<path fill="#F4BF1A" opacity="1.000000" stroke="none" 
	d="
M461.027100,543.908325 
	C466.803284,522.800659 472.506989,502.078247 478.471588,480.407898 
	C482.366608,485.591644 485.722748,490.075928 489.097565,494.546112 
	C496.507446,504.361023 503.905975,514.184570 511.360992,523.965149 
	C512.732727,525.764771 513.786499,526.864136 510.596222,528.150085 
	C493.850372,534.899841 477.201965,541.891357 460.522156,548.797913 
	C459.594421,547.038086 460.868561,545.737488 461.027100,543.908325 
z"/>
<path fill="#F4BF1A" opacity="1.000000" stroke="none" 
	d="
M400.941803,428.904602 
	C402.412903,425.350586 403.768982,422.162659 405.273102,418.626648 
	C420.709442,430.274139 435.804474,441.664093 451.688934,453.649750 
	C428.524231,459.990662 406.276794,466.080475 382.947357,472.466492 
	C389.197021,457.367645 395.011902,443.319183 400.941803,428.904602 
z"/>
<path fill="#F6C01B" opacity="1.000000" stroke="none" 
	d="
M368.574615,543.528198 
	C370.089172,532.140869 371.523926,521.192871 372.946259,510.339539 
	C389.275085,526.666931 405.326752,542.717102 421.700653,559.089539 
	C414.720062,560.046936 407.604706,561.051514 400.481079,561.993164 
	C390.104980,563.364685 379.711334,564.609680 369.350708,566.087769 
	C366.357483,566.514771 365.503357,565.648987 365.945343,562.731262 
	C366.890625,556.491150 367.655823,550.223694 368.574615,543.528198 
z"/>
<path fill="#F9F7F9" opacity="1.000000" stroke="none" 
	d="
M506.541840,753.174927 
	C524.618530,778.312439 548.436707,794.853821 578.064819,803.933716 
	C568.841492,807.728455 559.800903,808.370483 549.948120,803.341431 
	C529.295837,792.800354 511.196838,779.536438 497.689240,760.472534 
	C496.922394,759.390259 496.191895,758.281433 495.474121,757.165833 
	C495.215393,756.763733 495.043915,756.305542 494.630737,755.459656 
	C498.591339,754.670776 502.366058,753.918884 506.541840,753.174927 
z"/>
<path fill="#322155" opacity="1.000000" stroke="none" 
	d="
M222.892029,491.649536 
	C232.887726,491.084656 242.864166,489.394135 252.336288,485.699341 
	C269.637604,478.950623 283.445953,467.724976 293.917542,452.318268 
	C301.232697,441.555603 307.472015,430.304840 311.247101,417.789185 
	C311.386322,417.327545 311.634857,416.898865 311.832428,416.454773 
	C312.237518,416.619324 312.642578,416.783844 313.047638,416.948395 
	C312.496979,424.056519 311.902771,431.161621 311.411438,438.273865 
	C311.099548,442.788422 309.919617,447.367889 312.498322,451.838043 
	C308.252716,458.113525 301.701447,462.133972 295.672668,466.651154 
	C279.459045,478.799561 261.764221,488.064270 241.570618,491.503723 
	C235.531158,492.532349 229.308212,494.477020 222.892029,491.649536 
z"/>
<path fill="#F1BE1F" opacity="1.000000" stroke="none" 
	d="
M500.658325,476.363495 
	C496.828217,471.311584 493.314423,466.465637 489.580841,461.795380 
	C487.930145,459.730621 487.805695,458.402557 489.856812,456.422272 
	C494.953857,451.501282 499.772400,446.291840 505.318207,440.562439 
	C511.127960,462.245514 516.604309,482.684326 522.080627,503.123138 
	C521.808594,503.286469 521.536560,503.449829 521.264526,503.613159 
	C514.471436,494.622406 507.678345,485.631653 500.658325,476.363495 
z"/>
<path fill="#F1BE1F" opacity="1.000000" stroke="none" 
	d="
M436.278107,416.723572 
	C433.493835,414.614563 430.992279,412.722137 428.490753,410.829742 
	C428.595734,410.552063 428.700745,410.274384 428.805725,409.996735 
	C437.416077,412.309113 446.025360,414.625488 454.637054,416.932892 
	C465.521484,419.849213 476.380737,422.866760 487.309540,425.606384 
	C490.725128,426.462555 490.588287,427.406067 488.342468,429.558960 
	C484.146484,433.581360 479.931183,437.607086 476.046661,441.921967 
	C473.812531,444.403564 472.282379,444.041870 469.899628,442.203979 
	C458.859497,433.688324 447.686371,425.345154 436.278107,416.723572 
z"/>
<path fill="#EEE8F1" opacity="1.000000" stroke="none" 
	d="
M470.548401,218.662598 
	C470.563080,219.825272 470.470947,220.645554 470.245361,221.858673 
	C470.387604,222.608780 470.476868,223.011536 470.191589,223.697617 
	C468.142090,241.467209 466.344391,258.996857 464.462006,276.517395 
	C460.980377,308.922699 457.451904,341.322998 453.934937,373.724487 
	C453.504395,377.691071 453.024536,381.652344 452.529968,386.021484 
	C448.334534,386.429504 447.105408,384.971375 447.733093,380.387665 
	C453.254211,340.069916 458.444458,299.706787 463.724548,259.356049 
	C465.491302,245.854416 467.234528,232.349716 469.075256,218.443329 
	C469.647430,217.864395 470.071228,217.970230 470.548401,218.662598 
z"/>
<path fill="#F5C11D" opacity="1.000000" stroke="none" 
	d="
M464.773132,569.201599 
	C465.039581,568.985413 465.228668,568.777405 465.368958,568.785522 
	C466.921021,568.571777 468.178802,567.903381 469.761536,567.180786 
	C470.023407,566.943726 470.183594,566.735352 470.314301,566.749146 
	C472.202972,566.463806 473.710114,565.296814 475.594666,564.905396 
	C475.637634,564.523804 475.685150,564.701843 475.696716,564.610474 
	C477.772736,564.215332 479.505005,562.999146 481.728241,562.191528 
	C481.986786,561.961670 481.985107,562.006836 481.970398,561.989624 
	C483.458862,561.438721 484.904480,560.737854 486.731567,560.179688 
	C486.982635,559.943298 486.982941,560.003723 486.962280,559.981689 
	C487.417816,559.601013 487.996124,559.526428 488.786621,559.219849 
	C489.023987,559.057739 489.030792,558.995605 489.048279,559.021484 
	C489.733063,558.272888 490.709564,558.644470 491.738098,558.145203 
	C491.960083,557.904114 491.972900,557.989563 491.941956,557.959412 
	C494.976837,556.685181 498.141693,555.685974 501.148712,554.304443 
	C502.550781,553.660339 503.840485,552.901672 505.154907,554.704834 
	C505.116211,555.106140 505.032837,555.107239 505.071167,555.094360 
	C504.771301,555.178528 504.517578,555.381409 504.225708,555.906616 
	C503.392731,558.102295 501.506378,559.055115 499.966736,560.738831 
	C497.895935,562.458557 496.407196,564.327271 494.344940,565.993408 
	C494.229340,566.293640 494.183655,566.181519 494.240387,566.202637 
	C491.553833,568.558228 489.423035,571.535706 486.357971,573.980408 
	C486.230896,574.294922 486.184174,574.181580 486.241364,574.203613 
	C483.551483,576.555115 481.425171,579.536377 478.362946,581.980713 
	C478.238922,582.296387 478.173126,582.170715 478.236786,582.201965 
	C475.543121,584.549622 473.428680,587.541809 470.364014,589.980591 
	C470.240601,590.296448 470.171417,590.169250 470.236206,590.201538 
	C463.652740,596.733398 463.613892,596.743530 461.250214,587.703552 
	C460.546600,585.012573 459.287354,582.434570 459.069061,579.335083 
	C458.729706,579.116394 458.837341,579.102478 458.810303,579.149536 
	C458.519135,576.996948 457.340942,574.967896 457.762848,572.307495 
	C457.958435,571.938171 457.987762,572.004761 457.962280,571.978577 
	C458.417847,571.601990 458.996277,571.526367 459.785858,571.216064 
	C460.021851,571.051514 460.028442,570.993713 460.044922,571.017700 
	C461.485016,570.341187 462.947510,569.747070 464.773132,569.201599 
z"/>
<path fill="#F0EAF1" opacity="1.000000" stroke="none" 
	d="
M287.593048,341.789368 
	C282.744171,348.478546 276.064880,353.671814 270.686432,360.159149 
	C254.764267,379.363983 245.111435,401.875916 235.948624,424.681702 
	C228.609390,442.948669 222.341537,461.598785 215.999695,480.614258 
	C215.740585,481.096619 215.569992,481.218689 215.145050,481.155548 
	C219.820099,456.716949 227.354446,433.268097 236.929520,410.476715 
	C244.992447,391.284576 254.628265,372.989868 268.655975,357.346130 
	C274.109131,351.264801 280.062958,345.757874 287.593048,341.789368 
z"/>
<path fill="#F9C217" opacity="1.000000" stroke="none" 
	d="
M377.306915,432.140015 
	C377.222290,432.635040 377.264771,432.834381 377.189117,432.902649 
	C376.802612,433.228302 376.579742,433.547211 376.325439,434.200317 
	C375.938171,435.221191 375.625183,435.951996 375.403229,436.993347 
	C375.451233,437.287476 375.064392,437.241180 375.255005,437.281555 
	C373.410126,441.204376 371.367493,445.083862 370.235657,449.749023 
	C370.062714,450.083313 370.010162,450.022888 370.049988,450.027191 
	C368.467163,453.005249 366.988892,456.035736 366.209442,459.725830 
	C366.016632,460.035065 365.992615,460.008759 366.010101,460.005737 
	C365.547821,460.418854 365.494598,461.019958 365.214996,461.842926 
	C365.085846,462.106934 365.035461,462.039825 365.077301,462.036835 
	C364.212311,462.639343 364.603363,463.639099 364.179688,464.716949 
	C363.975220,464.980438 363.969818,464.992371 363.963318,464.983276 
	C363.667786,465.281494 363.412994,465.614929 363.203430,466.289917 
	C363.214325,466.605255 363.264038,466.825989 363.177002,466.898254 
	C362.128387,469.115967 360.644531,471.045532 360.259521,473.818024 
	C360.121948,474.149963 360.033142,474.029419 360.093933,474.073120 
	C356.213409,475.082245 352.929535,472.624237 349.318329,471.898560 
	C346.776978,471.387848 344.261597,470.711426 341.293823,470.247375 
	C340.920532,470.062042 340.974396,470.000427 340.967407,470.040741 
	C339.922394,468.810120 337.233826,469.130035 337.722839,466.204407 
	C337.890076,465.860321 337.938232,465.946075 337.890259,465.935364 
	C338.168030,465.786285 338.445770,465.581268 338.809265,465.089600 
	C338.936371,464.860260 338.947388,464.948181 338.903442,464.942688 
	C339.174072,464.782532 339.451385,464.578186 339.811005,464.087494 
	C339.936920,463.859009 339.948517,463.949097 339.903381,463.944153 
	C340.173950,463.782990 340.452179,463.577240 340.807678,463.080994 
	C340.928650,462.848480 340.943695,462.942871 340.896118,462.938446 
	C341.171051,462.784027 341.450897,462.576447 341.803101,462.073364 
	C341.918274,461.835541 341.933136,461.934296 341.883667,461.927734 
	C342.165283,461.786469 342.446259,461.581360 342.805176,461.080536 
	C342.926147,460.845306 342.939423,460.940491 342.891754,460.934448 
	C343.168610,460.783783 343.449188,460.578979 343.804443,460.078430 
	C343.923126,459.842957 343.935974,459.938477 343.888275,459.931641 
	C344.166779,459.781921 344.451080,459.581024 344.802917,459.075256 
	C344.919312,458.837830 344.933807,458.935059 344.885071,458.928528 
	C345.164612,458.782227 345.449890,458.582489 345.803131,458.076416 
	C345.920563,457.839142 345.935089,457.935944 345.886566,457.929626 
	C346.165436,457.782135 346.450287,457.581879 346.802979,457.075928 
	C346.919952,456.838562 346.934387,456.935577 346.885773,456.929077 
	C347.164917,456.782257 347.450012,456.582397 347.803345,456.076660 
	C347.920959,455.839630 347.935120,455.936188 347.886749,455.929718 
	C348.167847,455.785004 348.448303,455.578674 348.803955,455.076263 
	C348.921692,454.839294 348.935608,454.936707 348.886841,454.930206 
	C349.166351,454.783447 349.449127,454.579987 349.804077,454.075989 
	C349.921814,453.838867 349.935760,453.936676 349.886780,453.930206 
	C350.166321,453.786346 350.446167,453.581116 350.808411,453.084473 
	C350.933136,452.852051 350.944977,452.945740 350.898071,452.940186 
	C351.171875,452.786987 351.447327,452.578339 351.810791,452.088074 
	C351.937683,451.858887 351.948730,451.945160 351.908051,451.929810 
	C352.615570,451.591492 353.310150,451.204865 353.780945,450.131165 
	C353.902893,449.855103 353.931061,449.938446 353.887329,449.933899 
	C354.167145,449.783478 354.449982,449.581757 354.807587,449.081360 
	C354.929871,448.847748 354.941162,448.943268 354.893494,448.936707 
	C355.168518,448.784698 355.447998,448.580200 355.809265,448.085449 
	C355.934357,447.854309 355.946167,447.947144 355.899689,447.941772 
	C356.171692,447.783173 356.451447,447.578156 356.806915,447.079742 
	C356.927216,446.846008 356.942078,446.941620 356.893921,446.936829 
	C357.169800,446.784088 357.450470,446.577301 357.802979,446.073486 
	C357.918304,445.835419 357.933105,445.934174 357.883606,445.927612 
	C358.165222,445.786469 358.446259,445.581451 358.805115,445.080566 
	C358.926117,444.845306 358.939392,444.940430 358.891724,444.934387 
	C359.170044,444.785767 359.448364,444.577881 359.804443,444.078461 
	C359.923096,443.842957 359.935974,443.938477 359.888275,443.931641 
	C360.166779,443.781921 360.451080,443.581024 360.802917,443.075256 
	C360.919312,442.837830 360.933807,442.935059 360.885071,442.928528 
	C361.164612,442.782227 361.449890,442.582489 361.803131,442.076416 
	C361.920563,441.839142 361.935089,441.935944 361.886566,441.929626 
	C362.165436,441.782135 362.450287,441.581879 362.802979,441.075928 
	C362.919952,440.838562 362.934387,440.935577 362.885773,440.929077 
	C363.164917,440.782257 363.450012,440.582397 363.803345,440.076660 
	C363.920959,439.839630 363.935089,439.936218 363.886719,439.929749 
	C364.167816,439.785034 364.448273,439.578705 364.803955,439.076263 
	C364.921692,438.839294 364.935608,438.936737 364.886841,438.930237 
	C365.166718,438.784027 365.449493,438.580536 365.804047,438.076019 
	C365.921783,437.838867 365.935669,437.936676 365.886719,437.930176 
	C366.165436,437.785065 366.447479,437.582794 366.808350,437.084229 
	C366.932861,436.851685 366.944733,436.945496 366.897797,436.939880 
	C367.169556,436.784149 367.449310,436.581421 367.811157,436.088623 
	C367.938568,435.859741 367.947693,435.950470 367.902527,435.944336 
	C368.173645,435.785187 368.449341,435.578125 368.809753,435.087677 
	C368.935242,434.858582 368.947296,434.947876 368.902527,434.942871 
	C369.174835,434.783478 369.451263,434.575195 369.807129,434.079834 
	C369.927185,433.846710 369.941254,433.941467 369.893677,433.936218 
	C370.168427,433.783203 370.450623,433.580719 370.806671,433.080109 
	C370.927521,432.845947 370.940491,432.941528 370.892639,432.935608 
	C371.168579,432.784363 371.448822,432.579437 371.807251,432.081238 
	C371.929138,431.847595 371.941895,431.942749 371.894226,431.936951 
	C372.169647,431.784943 372.449249,431.579620 372.807495,431.081818 
	C372.929626,430.848633 372.942505,430.943207 372.895081,430.937622 
	C373.169159,430.783112 373.450623,430.579956 373.806763,430.080200 
	C373.927612,429.846252 373.940796,429.941376 373.893127,429.935608 
	C374.168396,429.784698 374.447968,429.580261 374.807617,429.084351 
	C374.931183,428.852325 374.953430,428.947296 374.911469,428.922455 
	C377.520630,428.151489 377.653687,429.716858 377.306915,432.140015 
z"/>
<path fill="#EFE8F2" opacity="1.000000" stroke="none" 
	d="
M682.949219,393.447327 
	C636.072693,414.430695 589.222412,435.027374 542.122559,455.905548 
	C539.127319,453.298187 539.368103,451.551941 543.396484,449.891174 
	C589.270630,430.978668 635.084534,411.920197 681.270569,392.841248 
	C682.152832,392.504120 682.602539,392.596771 682.949219,393.447327 
z"/>
<path fill="#F7F5F7" opacity="1.000000" stroke="none" 
	d="
M473.598328,638.171997 
	C473.600616,665.745422 480.936554,691.816406 490.532715,717.416870 
	C490.764465,718.035156 490.930695,718.678101 491.230713,719.689148 
	C491.051697,720.240662 490.790161,720.497192 490.484131,720.572083 
	C480.881500,722.922058 480.753784,722.949707 478.481720,713.438232 
	C472.569061,688.686707 470.107178,663.673584 473.598328,638.171997 
z"/>
<path fill="#F6F5EE" opacity="1.000000" stroke="none" 
	d="
M348.280731,541.341553 
	C347.969910,545.039001 348.312225,548.400085 346.480835,551.759827 
	C340.824127,530.611389 335.247467,509.762177 329.455078,488.106537 
	C334.008820,489.390686 337.739197,490.442657 341.746948,491.733887 
	C344.258972,495.686859 343.958252,499.937622 344.442719,503.988037 
	C345.913208,516.282776 347.863159,528.528625 348.280731,541.341553 
z"/>
<path fill="#F0BF25" opacity="1.000000" stroke="none" 
	d="
M403.880310,582.552979 
	C414.050995,580.016052 424.447571,579.266846 434.731049,577.730347 
	C437.094360,577.377258 437.512360,578.738403 437.968109,580.442993 
	C439.544891,586.340271 441.169403,592.224854 442.761017,598.488831 
	C441.282654,600.479065 439.679810,599.643738 438.214081,598.988403 
	C428.263550,594.539917 418.090057,590.618347 408.123901,586.209045 
	C406.456207,585.471191 404.815796,584.668579 403.880310,582.552979 
z"/>
<path fill="#F6F5ED" opacity="1.000000" stroke="none" 
	d="
M403.429047,582.131714 
	C412.655365,587.590576 422.577240,590.527161 431.905426,594.782166 
	C435.215851,596.292175 438.657288,597.514954 442.392578,598.866089 
	C444.730164,602.845154 442.513245,602.326721 439.881653,601.615540 
	C420.060120,596.259033 400.228607,590.939392 379.561584,585.382751 
	C387.809814,583.634888 395.404510,582.851135 403.429047,582.131714 
z"/>
<path fill="#EDBE2A" opacity="1.000000" stroke="none" 
	d="
M348.352692,541.465942 
	C346.090027,532.504639 345.444153,523.051392 344.246185,513.677551 
	C343.362091,506.759308 342.737885,499.807861 342.011078,492.422211 
	C342.354279,491.951782 342.695984,491.863342 343.012573,491.918671 
	C354.837982,493.986176 354.796021,493.982330 353.212372,505.698639 
	C351.615112,517.515930 350.112183,529.346069 348.352692,541.465942 
z"/>
<path fill="#F5F3F6" opacity="1.000000" stroke="none" 
	d="
M638.494568,815.088440 
	C650.318726,819.582336 662.433411,821.281677 674.309448,823.935974 
	C676.243164,824.368164 678.212158,824.642395 680.561218,825.041260 
	C681.318481,825.411621 681.479004,825.806030 681.164795,826.528625 
	C660.623596,826.436890 640.392395,825.225464 620.108765,821.940308 
	C626.355957,820.139709 631.347900,815.408936 638.494568,815.088440 
z"/>
<path fill="#110320" opacity="1.000000" stroke="none" 
	d="
M485.165649,308.950195 
	C486.776794,298.531067 490.961182,288.830261 493.909943,278.373901 
	C494.271454,277.898193 494.491730,277.769196 495.061829,277.795776 
	C493.770142,288.746948 490.479004,299.142731 487.479340,309.947784 
	C486.663605,309.821411 486.092834,309.415802 485.165649,308.950195 
z"/>
<path fill="#130424" opacity="1.000000" stroke="none" 
	d="
M642.047668,442.863220 
	C652.619629,439.077423 663.898621,436.941925 675.600830,434.724091 
	C676.141357,434.878052 676.256592,435.105408 676.190308,435.669312 
	C665.591553,438.991669 655.174316,441.977539 644.363647,444.936401 
	C643.903137,443.885284 643.459106,443.168060 642.047668,442.863220 
z"/>
<path fill="#D0BEDA" opacity="1.000000" stroke="none" 
	d="
M683.276428,393.766785 
	C682.660095,393.570740 682.397339,393.307526 681.880554,392.913025 
	C690.151611,389.153534 698.676697,385.525330 707.580322,381.907990 
	C708.070129,383.743988 706.434998,383.665192 705.419678,384.118317 
	C698.174255,387.351990 690.897034,390.514496 683.276428,393.766785 
z"/>
<path fill="#D6C6DF" opacity="1.000000" stroke="none" 
	d="
M470.798096,218.595184 
	C470.295624,218.739822 469.936035,218.474670 469.369202,218.124878 
	C470.127991,209.996719 471.093994,201.953201 472.158569,193.502747 
	C472.750092,192.957291 473.135925,193.114273 473.334320,193.858093 
	C472.472046,202.191620 471.706482,210.188507 470.798096,218.595184 
z"/>
<path fill="#322155" opacity="1.000000" stroke="none" 
	d="
M472.707001,390.080658 
	C477.066925,392.091217 480.119141,391.031158 482.593384,387.054688 
	C482.079407,389.597443 481.765747,393.480011 478.706726,393.514435 
	C475.080811,393.555176 471.134033,392.639404 467.836090,390.671295 
	C466.312347,389.761963 467.485962,388.333832 468.441956,386.995544 
	C469.445038,388.405701 469.216675,391.133636 472.707001,390.080658 
z"/>
<path fill="#D6AF31" opacity="1.000000" stroke="none" 
	d="
M458.731934,579.527466 
	C460.937469,582.280884 461.360199,586.063965 462.352417,589.644653 
	C463.848236,595.042603 463.958893,595.081604 468.371826,591.164856 
	C468.737427,590.840332 469.185394,590.608521 469.948059,590.283691 
	C468.211487,592.487305 466.121948,594.740723 463.395447,597.681091 
	C461.688202,591.182739 460.211182,585.560608 458.731934,579.527466 
z"/>
<path fill="#E0B836" opacity="1.000000" stroke="none" 
	d="
M341.186096,470.318909 
	C347.497345,469.361694 353.221558,472.638916 359.754181,474.065002 
	C358.903931,476.362183 357.206177,474.802429 355.830536,474.465424 
	C351.009277,473.284363 346.240417,471.889496 341.186096,470.318909 
z"/>
<path fill="#E0B836" opacity="1.000000" stroke="none" 
	d="
M377.511749,432.388000 
	C376.848083,431.393799 377.379272,429.751099 375.263733,429.002441 
	C376.686859,426.964417 378.504181,425.031189 380.620270,423.011108 
	C380.994934,426.373749 378.762054,429.042236 377.511749,432.388000 
z"/>
<path fill="#D6AF31" opacity="1.000000" stroke="none" 
	d="
M370.330566,449.857574 
	C369.450073,445.067932 372.921295,441.558624 375.086426,437.378540 
	C373.829926,441.425232 372.214203,445.528534 370.330566,449.857574 
z"/>
<path fill="#D6AF31" opacity="1.000000" stroke="none" 
	d="
M505.392944,555.129883 
	C501.983307,552.475830 500.085571,556.788696 497.251160,556.537598 
	C495.786621,556.407898 494.216858,557.466187 492.302856,557.958496 
	C495.564636,555.634827 499.680054,554.402771 504.000671,552.819336 
	C505.098846,552.690491 505.830444,552.629028 506.582611,553.578552 
	C506.386658,554.326538 506.028168,554.740051 505.392944,555.129883 
z"/>
<path fill="#B4ACB8" opacity="1.000000" stroke="none" 
	d="
M474.775757,176.278488 
	C474.985870,179.809067 475.392609,183.624603 474.071045,187.675751 
	C471.311249,184.133041 474.727753,180.368851 474.775757,176.278488 
z"/>
<path fill="#D6AF31" opacity="1.000000" stroke="none" 
	d="
M366.265411,459.788940 
	C365.810852,456.322266 367.499512,453.274353 369.759521,450.171265 
	C369.558655,453.450317 367.699677,456.369965 366.265411,459.788940 
z"/>
<path fill="#D6AF31" opacity="1.000000" stroke="none" 
	d="
M486.542236,574.171143 
	C487.810364,570.820007 490.847198,568.693359 493.954834,566.269653 
	C491.815948,568.831543 489.334747,571.439453 486.542236,574.171143 
z"/>
<path fill="#D6AF31" opacity="1.000000" stroke="none" 
	d="
M470.550720,590.171509 
	C471.800964,586.807556 474.850739,584.696228 477.958374,582.277588 
	C475.820526,584.837646 473.340668,587.442078 470.550720,590.171509 
z"/>
<path fill="#D6AF31" opacity="1.000000" stroke="none" 
	d="
M478.549438,582.171936 
	C479.800781,578.807922 482.841339,576.685669 485.955872,574.270386 
	C483.819031,576.833008 481.339478,579.440247 478.549438,582.171936 
z"/>
<path fill="#B4ACB8" opacity="1.000000" stroke="none" 
	d="
M681.358887,826.889099 
	C680.951965,826.396973 680.983154,826.024231 680.985962,825.372192 
	C683.962463,825.565979 686.967346,826.039185 689.892944,826.766113 
	C687.141418,827.015991 684.469177,827.012268 681.358887,826.889099 
z"/>
<path fill="#856C95" opacity="1.000000" stroke="none" 
	d="
M477.021240,158.556641 
	C476.799286,161.642288 477.622467,165.168137 475.798584,168.797729 
	C476.295593,165.763229 475.364227,162.139313 477.021240,158.556641 
z"/>
<path fill="#E0B836" opacity="1.000000" stroke="none" 
	d="
M337.580872,465.973633 
	C337.852478,467.825287 339.911072,468.142822 340.835693,469.765320 
	C339.874634,469.901215 338.785645,469.738922 337.703735,469.538330 
	C333.960846,468.844391 335.895935,467.428253 337.580872,465.973633 
z"/>
<path fill="#AE97BE" opacity="1.000000" stroke="none" 
	d="
M719.608521,376.898346 
	C718.550049,379.305511 716.130554,379.777618 713.308899,380.064758 
	C714.672791,378.165741 717.036743,377.685577 719.608521,376.898346 
z"/>
<path fill="#E0B836" opacity="1.000000" stroke="none" 
	d="
M360.406281,473.941437 
	C359.381287,471.352783 361.004242,469.382538 362.792664,467.168335 
	C362.290192,469.224670 361.490387,471.478790 360.406281,473.941437 
z"/>
<path fill="#D6AF31" opacity="1.000000" stroke="none" 
	d="
M494.534119,566.175293 
	C494.986877,563.763489 496.999756,562.382080 499.368988,560.979370 
	C498.074646,562.637573 496.456787,564.347290 494.534119,566.175293 
z"/>
<path fill="#E0B836" opacity="1.000000" stroke="none" 
	d="
M507.030457,553.726562 
	C506.161591,553.607361 505.578033,553.301819 504.674683,552.903564 
	C505.645477,552.192017 506.936005,551.573120 508.556213,550.918823 
	C509.417084,552.392151 507.903076,552.692261 507.030457,553.726562 
z"/>
<path fill="#D6AF31" opacity="1.000000" stroke="none" 
	d="
M457.592224,572.061157 
	C458.288300,574.083740 458.618134,576.229370 458.865601,578.785767 
	C457.637878,576.998169 456.529236,574.791626 457.592224,572.061157 
z"/>
<path fill="#D6AF31" opacity="1.000000" stroke="none" 
	d="
M481.632690,561.967896 
	C480.854218,564.324585 478.475006,564.222656 476.067261,564.646545 
	C477.565063,563.670715 479.421844,562.822388 481.632690,561.967896 
z"/>
<path fill="#322155" opacity="1.000000" stroke="none" 
	d="
M484.304199,383.816559 
	C482.360352,382.004272 483.930450,381.070923 485.681610,380.046204 
	C485.524933,381.206604 485.041595,382.409973 484.304199,383.816559 
z"/>
<path fill="#AE97BE" opacity="1.000000" stroke="none" 
	d="
M473.469452,193.966644 
	C473.040649,193.931305 472.836792,193.673370 472.441528,193.258362 
	C472.149078,192.051758 471.884796,190.941818 473.639893,190.556808 
	C473.867065,191.619919 473.784210,192.679245 473.469452,193.966644 
z"/>
<path fill="#AE97BE" opacity="1.000000" stroke="none" 
	d="
M475.118927,169.489243 
	C475.214783,169.066360 475.483551,169.080292 475.615967,169.061050 
	C475.755829,171.119476 475.763275,173.197128 475.522369,175.667755 
	C475.274017,176.060699 475.072052,176.018372 474.971649,175.993713 
	C474.921844,173.950073 474.972473,171.931107 475.118927,169.489243 
z"/>
<path fill="#130424" opacity="1.000000" stroke="none" 
	d="
M480.676361,336.229584 
	C481.125061,337.747131 480.877472,339.392273 479.543549,341.097534 
	C478.715393,339.508667 479.384003,337.943542 480.676361,336.229584 
z"/>
<path fill="#AE97BE" opacity="1.000000" stroke="none" 
	d="
M726.654663,373.941986 
	C726.169495,375.850800 724.458191,376.009583 722.314087,376.021179 
	C723.390686,375.309357 724.845276,374.633362 726.654663,373.941986 
z"/>
<path fill="#D6AF31" opacity="1.000000" stroke="none" 
	d="
M469.665588,566.943604 
	C469.291840,568.578186 467.975708,569.106140 465.895813,568.856934 
	C466.775421,568.177002 468.041595,567.560303 469.665588,566.943604 
z"/>
<path fill="#D6AF31" opacity="1.000000" stroke="none" 
	d="
M464.689575,568.984741 
	C463.955902,570.375183 462.442657,570.883057 460.416016,571.053223 
	C461.487488,570.355835 462.913544,569.669983 464.689575,568.984741 
z"/>
<path fill="#D6AF31" opacity="1.000000" stroke="none" 
	d="
M475.288452,564.586243 
	C474.940796,566.747070 472.821777,566.298279 470.843658,566.813049 
	C471.943115,566.058228 473.441223,565.353455 475.288452,564.586243 
z"/>
<path fill="#D0BEDA" opacity="1.000000" stroke="none" 
	d="
M214.669571,481.252502 
	C215.060760,480.977295 215.230820,480.984253 215.656021,480.982849 
	C215.456879,482.320984 215.002563,483.667450 214.183228,485.035461 
	C214.028259,483.882904 214.238358,482.708771 214.669571,481.252502 
z"/>
<path fill="#D6AF31" opacity="1.000000" stroke="none" 
	d="
M486.632416,559.937012 
	C485.938324,561.444275 484.377319,561.875122 482.317261,561.996765 
	C483.397888,561.291809 484.840027,560.611206 486.632416,559.937012 
z"/>
<path fill="#130424" opacity="1.000000" stroke="none" 
	d="
M479.532837,325.949341 
	C478.981476,324.600677 479.828613,323.479095 480.605469,322.026306 
	C480.857239,323.224182 481.554291,324.820526 479.532837,325.949341 
z"/>
<path fill="#B4ACB8" opacity="1.000000" stroke="none" 
	d="
M291.515991,339.614990 
	C291.117676,340.368286 290.671936,341.428009 289.183655,341.149414 
	C289.251007,339.665802 290.335968,339.798401 291.515991,339.614990 
z"/>
<path fill="#D6AF31" opacity="1.000000" stroke="none" 
	d="
M375.675507,437.078735 
	C375.023590,436.352203 374.908722,435.418945 375.735352,434.245178 
	C376.145752,433.874268 376.289978,433.748230 376.654663,433.806519 
	C376.549988,434.950592 376.224884,435.910309 375.675507,437.078735 
z"/>
<path fill="#AE97BE" opacity="1.000000" stroke="none" 
	d="
M729.633911,372.807007 
	C729.548950,373.871277 728.658447,374.044891 727.291443,373.990845 
	C727.450256,373.064117 728.377563,372.956207 729.633911,372.807007 
z"/>
<path fill="#E0B836" opacity="1.000000" stroke="none" 
	d="
M353.617340,449.953491 
	C353.945160,450.858917 353.714935,451.683777 352.213287,451.907532 
	C352.355499,451.293579 352.843658,450.672760 353.617340,449.953491 
z"/>
<path fill="#D6AF31" opacity="1.000000" stroke="none" 
	d="
M491.636566,557.894653 
	C491.532837,558.884338 490.664001,559.031433 489.404205,559.063416 
	C489.814880,558.660034 490.563965,558.272583 491.636566,557.894653 
z"/>
<path fill="#D6AF31" opacity="1.000000" stroke="none" 
	d="
M364.210449,464.750610 
	C364.163818,464.116425 364.352417,463.252411 364.830078,462.211121 
	C364.894653,462.862823 364.670166,463.691772 364.210449,464.750610 
z"/>
<path fill="#D0BEDA" opacity="1.000000" stroke="none" 
	d="
M710.656860,380.810974 
	C710.800781,382.378723 709.491943,381.992126 708.270203,382.135284 
	C708.425598,380.955353 709.439697,380.971863 710.656860,380.810974 
z"/>
<path fill="#856C95" opacity="1.000000" stroke="none" 
	d="
M736.657227,369.886169 
	C736.534851,370.979095 735.604980,371.029175 734.286865,370.987915 
	C734.450012,370.013184 735.394043,369.960449 736.657227,369.886169 
z"/>
<path fill="#D6AF31" opacity="1.000000" stroke="none" 
	d="
M365.336243,461.927185 
	C365.222961,461.518097 365.360016,460.929260 365.762329,460.171539 
	C365.880585,460.584259 365.733582,461.165833 365.336243,461.927185 
z"/>
<path fill="#E0B836" opacity="1.000000" stroke="none" 
	d="
M508.935883,550.940430 
	C509.145233,550.776245 509.330597,550.578369 509.544281,550.418274 
	C509.581299,550.390564 509.738312,550.522949 509.839905,550.581360 
	C509.643524,550.713623 509.447174,550.845825 509.068359,550.930664 
	C508.885895,550.883301 508.921478,550.919495 508.935883,550.940430 
z"/>
<path fill="#D6AF31" opacity="1.000000" stroke="none" 
	d="
M488.723663,559.036926 
	C488.533264,559.370483 488.042542,559.683228 487.246704,559.977783 
	C487.435486,559.645142 487.929413,559.330627 488.723663,559.036926 
z"/>
<path fill="#D6AF31" opacity="1.000000" stroke="none" 
	d="
M459.716858,571.025391 
	C459.530426,571.362549 459.039001,571.673523 458.242188,571.968506 
	C458.428497,571.634705 458.920197,571.317017 459.716858,571.025391 
z"/>
<path fill="#856C95" opacity="1.000000" stroke="none" 
	d="
M738.587769,369.027771 
	C738.438171,369.361450 737.978271,369.656952 737.221558,369.958252 
	C737.057068,369.196991 737.619385,369.026917 738.587769,369.027771 
z"/>
<path fill="#856C95" opacity="1.000000" stroke="none" 
	d="
M733.664551,370.914368 
	C733.818115,371.740448 733.210449,371.961365 732.123291,371.988831 
	C732.292542,371.624176 732.810486,371.267700 733.664551,370.914368 
z"/>
<path fill="#AE97BE" opacity="1.000000" stroke="none" 
	d="
M721.676453,375.930603 
	C722.115173,376.987213 721.346558,377.010284 720.284973,377.032959 
	C720.406677,376.617096 720.882141,376.272186 721.676453,375.930603 
z"/>
<path fill="#D0BEDA" opacity="1.000000" stroke="none" 
	d="
M712.648682,379.887543 
	C713.137878,380.998199 712.353455,381.004608 711.271545,381.021606 
	C710.914978,380.005005 711.671509,380.010437 712.648682,379.887543 
z"/>
<path fill="#D6AF31" opacity="1.000000" stroke="none" 
	d="
M504.265564,555.945312 
	C504.257996,555.811340 504.412903,555.499329 504.838684,555.134399 
	C504.876862,555.304626 504.649750,555.533264 504.265564,555.945312 
z"/>
<path fill="#312355" opacity="1.000000" stroke="none" 
	d="
M679.163452,864.214355 
	C679.418396,864.088745 679.642395,864.275513 679.928589,864.708374 
	C679.749573,864.757996 679.463501,864.615417 679.163452,864.214355 
z"/>
<path fill="#39245E" opacity="1.000000" stroke="none" 
	d="
M546.569580,472.979034 
	C546.835754,473.227753 546.721313,473.520905 546.244263,473.878723 
	C546.137207,473.696564 546.239624,473.389923 546.569580,472.979034 
z"/>
<path fill="#E0B836" opacity="1.000000" stroke="none" 
	d="
M370.662262,432.926697 
	C370.742920,433.152130 370.558350,433.458282 370.109924,433.847717 
	C370.029724,433.623108 370.213348,433.315277 370.662262,432.926697 
z"/>
<path fill="#E0B836" opacity="1.000000" stroke="none" 
	d="
M361.656311,441.920776 
	C361.736023,442.146088 361.551453,442.453003 361.101624,442.840942 
	C361.021606,442.615448 361.206818,442.308929 361.656311,441.920776 
z"/>
<path fill="#E0B836" opacity="1.000000" stroke="none" 
	d="
M362.655212,440.919952 
	C362.735779,441.145386 362.551575,441.452209 362.102722,441.841156 
	C362.022186,441.615967 362.206329,441.308655 362.655212,440.919952 
z"/>
<path fill="#E0B836" opacity="1.000000" stroke="none" 
	d="
M363.655884,439.920258 
	C363.736237,440.146149 363.551483,440.452667 363.101929,440.840881 
	C363.021698,440.615356 363.206268,440.308105 363.655884,439.920258 
z"/>
<path fill="#E0B836" opacity="1.000000" stroke="none" 
	d="
M364.656342,438.919739 
	C364.737122,439.146027 364.552551,439.452728 364.103149,439.841370 
	C364.022552,439.615570 364.206757,439.307892 364.656342,438.919739 
z"/>
<path fill="#E0B836" opacity="1.000000" stroke="none" 
	d="
M365.655365,437.918121 
	C365.737396,438.146149 365.553040,438.453461 365.103333,438.842224 
	C365.021667,438.614929 365.205322,438.306152 365.655365,437.918121 
z"/>
<path fill="#E0B836" opacity="1.000000" stroke="none" 
	d="
M366.665955,436.928894 
	C366.744537,437.155853 366.556244,437.460022 366.102844,437.843933 
	C366.024841,437.617828 366.211945,437.311981 366.665955,436.928894 
z"/>
<path fill="#E0B836" opacity="1.000000" stroke="none" 
	d="
M367.670380,435.933533 
	C367.751007,436.162537 367.563416,436.465302 367.113342,436.851196 
	C367.034637,436.625305 367.218414,436.316315 367.670380,435.933533 
z"/>
<path fill="#E0B836" opacity="1.000000" stroke="none" 
	d="
M368.669312,434.935059 
	C368.751465,435.163513 368.567688,435.468475 368.120605,435.855835 
	C368.039337,435.629303 368.221375,435.320435 368.669312,434.935059 
z"/>
<path fill="#E0B836" opacity="1.000000" stroke="none" 
	d="
M369.661072,433.926636 
	C369.746521,434.155060 369.565857,434.463409 369.121460,434.854797 
	C369.036804,434.627441 369.215881,434.316986 369.661072,433.926636 
z"/>
<path fill="#E0B836" opacity="1.000000" stroke="none" 
	d="
M377.000763,433.751312 
	C376.875092,433.990845 376.438293,433.994232 376.219910,433.997284 
	C376.209991,433.724670 376.418457,433.449005 376.870178,433.072144 
	C377.117798,433.151215 377.122131,433.331512 377.000763,433.751312 
z"/>
<path fill="#E0B836" opacity="1.000000" stroke="none" 
	d="
M360.656219,442.920959 
	C360.736053,443.145050 360.552795,443.452271 360.105042,443.842163 
	C360.024750,443.617889 360.208923,443.310974 360.656219,442.920959 
z"/>
<path fill="#E0B836" opacity="1.000000" stroke="none" 
	d="
M371.663025,431.926575 
	C371.743896,432.153473 371.558685,432.459381 371.109131,432.847473 
	C371.028839,432.621674 371.212921,432.313660 371.663025,431.926575 
z"/>
<path fill="#E0B836" opacity="1.000000" stroke="none" 
	d="
M372.662903,430.926697 
	C372.744904,431.154724 372.560150,431.460785 372.111023,431.849060 
	C372.029785,431.622375 372.212982,431.313538 372.662903,430.926697 
z"/>
<path fill="#E0B836" opacity="1.000000" stroke="none" 
	d="
M373.660095,429.923767 
	C373.743958,430.153290 373.560303,430.460297 373.112183,430.849670 
	C373.029327,430.621765 373.210968,430.311523 373.660095,429.923767 
z"/>
<path fill="#E0B836" opacity="1.000000" stroke="none" 
	d="
M374.665192,428.931396 
	C374.745422,429.157440 374.559631,429.462524 374.109680,429.848755 
	C374.030060,429.623413 374.214630,429.316925 374.665192,428.931396 
z"/>
<path fill="#E0B836" opacity="1.000000" stroke="none" 
	d="
M380.968811,422.976776 
	C381.121704,422.790222 381.259888,422.584625 381.398071,422.379028 
	C381.369080,422.575378 381.340088,422.771759 381.115051,422.946167 
	C380.919006,422.924255 380.954102,422.957733 380.968811,422.976776 
z"/>
<path fill="#39245E" opacity="1.000000" stroke="none" 
	d="
M794.955872,364.753510 
	C794.809753,364.741119 794.693298,364.467255 794.718567,364.087097 
	C794.902039,364.151245 794.943787,364.321655 794.955872,364.753510 
z"/>
<path fill="#B4ACB8" opacity="1.000000" stroke="none" 
	d="
M288.605103,340.906311 
	C289.313507,341.447876 289.212402,341.849213 288.262207,341.999481 
	C288.022583,341.542297 288.150146,341.214874 288.605103,340.906311 
z"/>
<path fill="#130424" opacity="1.000000" stroke="none" 
	d="
M481.613403,333.147858 
	C481.722992,333.304749 481.635651,333.618927 481.357361,334.098145 
	C481.249786,333.943878 481.333130,333.624512 481.613403,333.147858 
z"/>
<path fill="#130424" opacity="1.000000" stroke="none" 
	d="
M481.343536,319.858521 
	C481.238647,319.695374 481.339813,319.379425 481.641205,318.903809 
	C481.744141,319.064728 481.646851,319.385254 481.343536,319.858521 
z"/>
<path fill="#130424" opacity="1.000000" stroke="none" 
	d="
M482.306091,316.846588 
	C482.190277,316.678040 482.291321,316.350739 482.588074,315.846863 
	C482.696808,316.009491 482.609833,316.348663 482.306091,316.846588 
z"/>
<path fill="#E0B836" opacity="1.000000" stroke="none" 
	d="
M347.655884,455.920258 
	C347.736176,456.146118 347.551422,456.452637 347.101929,456.840881 
	C347.021698,456.615356 347.206268,456.308105 347.655884,455.920258 
z"/>
<path fill="#E0B836" opacity="1.000000" stroke="none" 
	d="
M363.469849,466.409241 
	C363.296814,466.196167 363.379303,465.787048 363.709320,465.176086 
	C363.879669,465.387238 363.802490,465.800232 363.469849,466.409241 
z"/>
<path fill="#E0B836" opacity="1.000000" stroke="none" 
	d="
M338.668396,464.933044 
	C338.748627,465.163361 338.560822,465.466431 338.107666,465.847107 
	C338.028320,465.618347 338.214355,465.312073 338.668396,464.933044 
z"/>
<path fill="#E0B836" opacity="1.000000" stroke="none" 
	d="
M339.669189,463.933655 
	C339.753448,464.164520 339.570007,464.470062 339.123016,464.856384 
	C339.040131,464.627594 339.220825,464.317993 339.669189,463.933655 
z"/>
<path fill="#E0B836" opacity="1.000000" stroke="none" 
	d="
M340.662720,462.928528 
	C340.747528,463.156158 340.566376,463.463837 340.121704,463.855347 
	C340.037750,463.628967 340.217255,463.318787 340.662720,462.928528 
z"/>
<path fill="#E0B836" opacity="1.000000" stroke="none" 
	d="
M341.651855,461.916870 
	C341.737213,462.144379 341.556183,462.453217 341.111847,462.848022 
	C341.027496,462.622101 341.206451,462.310181 341.651855,461.916870 
z"/>
<path fill="#E0B836" opacity="1.000000" stroke="none" 
	d="
M342.660553,460.925079 
	C342.738770,461.150177 342.551453,461.455078 342.099121,461.840546 
	C342.021088,461.615723 342.208038,461.310303 342.660553,460.925079 
z"/>
<path fill="#E0B836" opacity="1.000000" stroke="none" 
	d="
M343.657471,459.921936 
	C343.738800,460.148651 343.554504,460.454346 343.107147,460.844208 
	C343.026642,460.619232 343.209198,460.310089 343.657471,459.921936 
z"/>
<path fill="#E0B836" opacity="1.000000" stroke="none" 
	d="
M344.656189,458.920959 
	C344.736023,459.145050 344.552765,459.452271 344.105042,459.842163 
	C344.024750,459.617920 344.208923,459.310974 344.656189,458.920959 
z"/>
<path fill="#E0B836" opacity="1.000000" stroke="none" 
	d="
M345.656311,457.920776 
	C345.736023,458.146088 345.551453,458.453003 345.101624,458.840942 
	C345.021576,458.615448 345.206818,458.308929 345.656311,457.920776 
z"/>
<path fill="#E0B836" opacity="1.000000" stroke="none" 
	d="
M346.655182,456.919952 
	C346.735748,457.145386 346.551575,457.452209 346.102722,457.841156 
	C346.022186,457.615967 346.206299,457.308655 346.655182,456.919952 
z"/>
<path fill="#39245E" opacity="1.000000" stroke="none" 
	d="
M547.759888,472.064697 
	C547.885986,472.356201 547.671753,472.591888 547.120972,472.772125 
	C546.953674,472.443726 547.165405,472.207825 547.759888,472.064697 
z"/>
<path fill="#E0B836" opacity="1.000000" stroke="none" 
	d="
M348.656372,454.919739 
	C348.737122,455.145996 348.552521,455.452698 348.103180,455.841339 
	C348.022614,455.615570 348.206818,455.307892 348.656372,454.919739 
z"/>
<path fill="#E0B836" opacity="1.000000" stroke="none" 
	d="
M349.655426,453.918121 
	C349.737427,454.146149 349.553070,454.453430 349.103394,454.842224 
	C349.021729,454.614929 349.205383,454.306152 349.655426,453.918121 
z"/>
<path fill="#E0B836" opacity="1.000000" stroke="none" 
	d="
M350.666138,452.929108 
	C350.744720,453.156128 350.556335,453.460205 350.102844,453.843994 
	C350.024933,453.617889 350.212067,453.312012 350.666138,452.929108 
z"/>
<path fill="#E0B836" opacity="1.000000" stroke="none" 
	d="
M351.669922,451.933533 
	C351.750519,452.161926 351.563354,452.464966 351.113708,452.851288 
	C351.034851,452.625824 351.218475,452.317017 351.669922,451.933533 
z"/>
<path fill="#E0B836" opacity="1.000000" stroke="none" 
	d="
M354.662964,448.926025 
	C354.743591,449.152832 354.557312,449.457916 354.107300,449.846191 
	C354.027740,449.620972 354.211914,449.312622 354.662964,448.926025 
z"/>
<path fill="#E0B836" opacity="1.000000" stroke="none" 
	d="
M355.667389,447.930664 
	C355.748047,448.159271 355.561707,448.464233 355.110596,448.849670 
	C355.030701,448.622406 355.215546,448.314667 355.667389,447.930664 
z"/>
<path fill="#E0B836" opacity="1.000000" stroke="none" 
	d="
M356.661804,446.927124 
	C356.745117,447.153625 356.562988,447.461212 356.117035,447.852600 
	C356.034271,447.627045 356.215332,447.317657 356.661804,446.927124 
z"/>
<path fill="#E0B836" opacity="1.000000" stroke="none" 
	d="
M357.651917,445.916626 
	C357.736603,446.144073 357.554901,446.452698 357.109497,446.846680 
	C357.025726,446.620667 357.205627,446.309265 357.651917,445.916626 
z"/>
<path fill="#E0B836" opacity="1.000000" stroke="none" 
	d="
M358.660522,444.925110 
	C358.738739,445.150177 358.551392,445.455048 358.099060,445.840515 
	C358.021027,445.615692 358.208008,445.310303 358.660522,444.925110 
z"/>
<path fill="#E0B836" opacity="1.000000" stroke="none" 
	d="
M359.657410,443.921936 
	C359.738800,444.148651 359.554504,444.454346 359.107117,444.844177 
	C359.026642,444.619202 359.209198,444.310059 359.657410,443.921936 
z"/>
<path fill="#2A0B47" opacity="1.000000" stroke="none" 
	d="
M495.636597,277.702393 
	C495.185059,277.967621 494.958374,277.983917 494.391449,278.013733 
	C495.363007,273.622223 496.674805,269.217194 497.986603,264.812195 
	C498.385590,269.283600 497.342834,273.412506 495.636597,277.702393 
z"/>
<path fill="#D6C6DF" opacity="1.000000" stroke="none" 
	d="
M470.089600,223.746552 
	C469.967682,223.511688 469.957397,223.081680 470.029541,222.451599 
	C470.141693,222.684814 470.171448,223.118118 470.089600,223.746552 
z"/>
<path fill="#2A0B47" opacity="1.000000" stroke="none" 
	d="
M499.642456,261.723755 
	C499.626495,261.997101 499.492279,262.143677 499.358063,262.290253 
	C499.413452,262.059143 499.468842,261.828064 499.642456,261.723755 
z"/>
<path fill="#2A0B47" opacity="1.000000" stroke="none" 
	d="
M676.405640,436.010010 
	C676.010071,435.780945 676.011414,435.556091 676.019409,434.990967 
	C680.759705,432.105072 686.068481,432.204010 691.147583,431.164948 
	C686.629578,433.673889 681.702393,434.802032 676.405640,436.010010 
z"/>
<path fill="#2A0B47" opacity="1.000000" stroke="none" 
	d="
M693.964111,430.651367 
	C694.478210,429.874268 695.813843,429.906769 695.823730,430.342621 
	C695.848206,431.422760 694.776367,430.803558 693.964111,430.651367 
z"/>
</svg>