<?xml version="1.0" encoding="UTF-8"?>
<svg xmlns="http://www.w3.org/2000/svg" version="1.1" xmlns:xlink="http://www.w3.org/1999/xlink" viewBox="0 0 841.89 595.28">
  <defs>
    <style>
      .cls-1 {
        fill: #282828;
      }

      .cls-1, .cls-2, .cls-3, .cls-4, .cls-5, .cls-6, .cls-7, .cls-8, .cls-9, .cls-10, .cls-11, .cls-12, .cls-13, .cls-14 {
        stroke-width: 0px;
      }

      .cls-2 {
        fill: #bcc6cd;
      }

      .cls-3 {
        fill: url(#Sfumatura_senza_nome_79);
      }

      .cls-4 {
        fill: #e8f1f8;
      }

      .cls-5 {
        fill: url(#Sfumatura_senza_nome_35);
      }

      .cls-6 {
        fill: url(#Sfumatura_senza_nome_76);
      }

      .cls-7 {
        fill: url(#Sfumatura_senza_nome_27);
      }

      .cls-8 {
        fill: url(#Sfumatura_senza_nome_10);
      }

      .cls-9 {
        fill: url(#Sfumatura_senza_nome_20);
      }

      .cls-10 {
        fill: url(#Sfumatura_senza_nome_286);
      }

      .cls-11 {
        fill: url(#Sfumatura_senza_nome_26);
      }

      .cls-12 {
        fill: url(#Sfumatura_senza_nome_15);
      }

      .cls-13 {
        fill: transparent;
      }

      .cls-14 {
        fill: url(#Sfumatura_senza_nome_82);
      }
    </style>
    <linearGradient id="Sfumatura_senza_nome_286" data-name="Sfumatura senza nome 286" x1="667.34" y1="270.31" x2="667.34" y2="614.66" gradientUnits="userSpaceOnUse">
      <stop offset="0" stop-color="#d24a4f"/>
      <stop offset=".02" stop-color="#d34a4a"/>
      <stop offset=".15" stop-color="#dd4b35"/>
      <stop offset=".28" stop-color="#e34d26"/>
      <stop offset=".45" stop-color="#e74d1d"/>
      <stop offset=".69" stop-color="#e94e1b"/>
    </linearGradient>
    <linearGradient id="Sfumatura_senza_nome_76" data-name="Sfumatura senza nome 76" x1="636.45" y1="314.14" x2="636.45" y2="582.92" gradientUnits="userSpaceOnUse">
      <stop offset="0" stop-color="#f39200"/>
      <stop offset=".08" stop-color="#f5a600"/>
      <stop offset=".2" stop-color="#f9c000"/>
      <stop offset=".33" stop-color="#fbd400"/>
      <stop offset=".49" stop-color="#fde200"/>
      <stop offset=".68" stop-color="#feea00"/>
      <stop offset="1" stop-color="#ffed00"/>
    </linearGradient>
    <linearGradient id="Sfumatura_senza_nome_82" data-name="Sfumatura senza nome 82" x1="557.11" y1="343.31" x2="557.11" y2="379.61" gradientUnits="userSpaceOnUse">
      <stop offset="0" stop-color="#f39200"/>
      <stop offset=".38" stop-color="#f7b200"/>
      <stop offset="1" stop-color="#ffed00"/>
    </linearGradient>
    <linearGradient id="Sfumatura_senza_nome_79" data-name="Sfumatura senza nome 79" x1="773.81" y1="131.62" x2="773.81" y2="223.29" gradientUnits="userSpaceOnUse">
      <stop offset="0" stop-color="#f39200"/>
      <stop offset=".24" stop-color="#f5a300"/>
      <stop offset=".72" stop-color="#fbd000"/>
      <stop offset="1" stop-color="#ffed00"/>
    </linearGradient>
    <linearGradient id="Sfumatura_senza_nome_20" data-name="Sfumatura senza nome 20" x1="110.12" y1="423.62" x2="136.09" y2="378.65" gradientUnits="userSpaceOnUse">
      <stop offset="0" stop-color="#1f415c"/>
      <stop offset="1" stop-color="#24718f"/>
    </linearGradient>
    <linearGradient id="Sfumatura_senza_nome_35" data-name="Sfumatura senza nome 35" x1="98.64" y1="383.11" x2="137.72" y2="315.42" gradientUnits="userSpaceOnUse">
      <stop offset="0" stop-color="#225370"/>
      <stop offset=".61" stop-color="#21506d"/>
      <stop offset=".97" stop-color="#1e4965"/>
      <stop offset="1" stop-color="#1e4864"/>
    </linearGradient>
    <linearGradient id="Sfumatura_senza_nome_27" data-name="Sfumatura senza nome 27" x1="75.45" y1="308.7" x2="150.14" y2="179.33" gradientUnits="userSpaceOnUse">
      <stop offset="0" stop-color="#75cbea"/>
      <stop offset=".04" stop-color="#7accea"/>
      <stop offset=".3" stop-color="#99d6ec"/>
      <stop offset=".54" stop-color="#afdeed"/>
      <stop offset=".78" stop-color="#bce2ee"/>
      <stop offset="1" stop-color="#c1e4ef"/>
    </linearGradient>
    <linearGradient id="Sfumatura_senza_nome_10" data-name="Sfumatura senza nome 10" x1="182.39" y1="391.27" x2="235.21" y2="299.78" gradientUnits="userSpaceOnUse">
      <stop offset="0" stop-color="#1f415c"/>
      <stop offset="1" stop-color="#49c1ea"/>
    </linearGradient>
    <linearGradient id="Sfumatura_senza_nome_15" data-name="Sfumatura senza nome 15" x1="208.25" y1="346.49" x2="241.91" y2="288.17" gradientUnits="userSpaceOnUse">
      <stop offset="0" stop-color="#49c1ea"/>
      <stop offset="1" stop-color="#c1e4ef"/>
    </linearGradient>
    <linearGradient id="Sfumatura_senza_nome_26" data-name="Sfumatura senza nome 26" x1="152.17" y1="234.45" x2="238.52" y2="234.45" gradientUnits="userSpaceOnUse">
      <stop offset="0" stop-color="#75cbea"/>
      <stop offset=".21" stop-color="#79ccea"/>
      <stop offset=".46" stop-color="#87d1eb"/>
      <stop offset=".71" stop-color="#9dd8ec"/>
      <stop offset=".97" stop-color="#bde2ee"/>
      <stop offset="1" stop-color="#c1e4ef"/>
    </linearGradient>
  </defs>
  <g id="Livello_7" data-name="Livello 7">
    <rect class="cls-13" x="-.57" y="-4.63" width="842.46" height="600.44"/>
  </g>
  <g id="Livello_9" data-name="Livello 9">
    <g>
      <path class="cls-10" d="M759.72,135.69c74.91-34.87,62.52,39.47,62.52,39.47,0,0-2.36,24.39-21.05,46.14-18.69,21.76-22.62,65.28-22.62,65.28,0,0,1.78,50.44,16.53,37.29s-1.78-38.25-1.78-38.25c25.97,13.39,12.59,47.1,12.59,47.1,0,0-6.69,14.59-22.82,19.13-16.14,4.55-26.37,14.82-31.68,24.86-5.32,10.04,2.16,37.54,2.16,37.54h-241.91c.49-2,31.02-27.36,14.88-63.83-22.42-50.68,27.05-60.73,34.63-62.45,7.57-1.72,16.42-11.67,17.9-18.73,1.47-7.06-6.59-9.51-6.59-9.51,0,0,17.41-1.43,18.88,13.45,1.47,14.88-14.46,19.01-3.69,35.33,0,0,1.97-24.98,34.18-23.43,33.03,1.59,22.52-28.58,14.85-67.55-7.6-38.59,64.83-55.03,66.28-55.34-.88.74-36.05,30.47-17.88,38.96,16.2,7.58,12.52,29.25,11.41,34.33-.15.68-.25,1.06-.25,1.06l1.43-.18s12.53-9.4,29.9-11.71c17.8-2.36,34.95-22.56,54.43-46.47,19.48-23.91,13.57-31.25,5.9-38.67-7.48-7.23-27.25-3.98-28.23-3.82Z"/>
      <g>
        <g>
          <path class="cls-6" d="M725.45,291.21s43.65-20.49,29.8,40.38c-4.52,19.84-22.22,14.1-29.31,14.1-31.58,0-35.41,49.02-2.36,56.31,20.2,4.45,22.18,10.91,22.52,12.25h-231.16l24-6.09s68.47-8.6,62.57-38.25c-5.9-29.65,26.36-46.87,49.97-42.08,23.6,4.78,25.58-43.47,5.32-70.52-19.98-26.64,8.77-42.82,9.61-43.27-.49.74-11.57,17.27-2.34,28.34,9.45,11.33,34.63,5.72,33.45,33.87-1.18,28.14,27.93,14.96,27.93,14.96Z"/>
          <path class="cls-14" d="M569.45,338.42c15.35,16.49-17.7,47.33-17.7,47.33,0,0,11.8-35.86-5.9-49.49-17.71-13.63,15.93-35.39,15.93-35.39,0,0-7.67,21.05,7.67,37.55Z"/>
        </g>
        <path class="cls-3" d="M759.5,135.68s16.49-5.37,27.85-3.75c3.55.5,10.19,1.78,14.76,5.06,11.71,8.4,19.89,25.71,2.24,45.59-24.53,27.63-71.3,40.72-71.3,40.72,0,0,6.01-2.22,12.3-7.09,3.08-2.38,42.82-41.06,48.05-56.12,4.31-12.41-4.13-19.43-6.53-20.88s-7.13-5.85-27.37-3.53Z"/>
      </g>
    </g>
  </g>
  <g id="Livello_14" data-name="Livello 14">
    <g>
      <path class="cls-9" d="M67.13,373.2c8.93,13.69,17.86,27.38,26.8,41.08,31.23,0,62.46,0,93.7,0-19.45-13.19-38.9-26.38-58.35-39.57-20.71-.5-41.43-1.01-62.14-1.51Z"/>
      <path class="cls-5" d="M82.43,373.75l-45.42-41.73c-5.08-20.34-10.15-40.67-15.23-61.01,52.29,22.68,104.58,45.35,156.87,68.03-.45,15.33-.91,30.65-1.36,45.98,14.98,9.75,29.96,19.49,44.94,29.24-11.53,0-23.07,0-34.6,0l-59.2-39.61c-15.33-.3-30.66-.61-45.99-.91Z"/>
      <path class="cls-7" d="M143.69,323.89c-25.34-10.99-50.67-21.98-76.01-32.97-.65-2.13-12.81-41.82-13.47-43.97-18.53-60.46-35.83-116.85-37.08-120.91l115.23,43.02,107.39,138.73-17.36,8.4-97.32-43.45,36.09,45.07,9.91,46.09c-9.12-13.34-18.25-26.68-27.37-40.01Z"/>
      <path class="cls-8" d="M222.23,414.27c-15.45-10.05-30.9-20.1-46.35-30.16-10.92-18.85-22.43-38.05-34.55-57.55-13.77-22.15-27.56-43.43-41.27-63.84,40.77,17.82,81.55,35.65,122.32,53.47l22.45-10.86,80.81,108.94c-34.48,0-68.95,0-103.43,0Z"/>
      <path class="cls-12" d="M100.06,262.72c40.72,10.49,81.45,20.97,122.17,31.46,5.05-2.87,10.1-5.74,15.16-8.62,29.42,42.9,58.84,85.81,88.26,128.71-75.2-50.52-150.39-101.03-225.59-151.55Z"/>
      <path class="cls-11" d="M161.98,207.33c-3.27-15.26-6.54-30.51-9.81-45.77,28.77,35.91,57.54,71.83,86.31,107.74.01,12.68.03,25.35.04,38.03-25.51-33.34-51.03-66.67-76.54-100.01Z"/>
    </g>
  </g>
  <g id="Livello_13" data-name="Livello 13">
    <g>
      <path class="cls-4" d="M335.72,335.9c1.54-2.8,4.11-4.2,7.7-4.2,1.35,0,2.87.2,4.55.61,1.54.32,2.45.69,2.73,1.12.28.43.42,1.59.42,3.49,0,3.11-.35,4.67-1.05,4.67-.47,0-.79-.74-.98-2.24-.23-1.85-.84-3.27-1.82-4.26-1.07-1.04-2.5-1.55-4.27-1.55-.75,0-1.38.09-1.89.27-.98.31-1.77.96-2.38,1.93s-.91,2.07-.91,3.28c0,.72.09,1.36.28,1.9.42,1.49,1.82,2.78,4.2,3.86,3.55,1.63,5.88,2.94,7,3.93.7.63,1.26,1.31,1.68,2.03.46.85.7,2.23.7,4.13s-.23,3.23-.7,4.13c-.98,1.94-2.4,3.25-4.27,3.93-1.03.4-2.45.61-4.27.61-1.91,0-3.64-.23-5.18-.68-1.5-.41-2.43-.81-2.8-1.22-.38-.41-.56-1.24-.56-2.51,0-1.44.13-2.84.38-4.19.26-1.36.55-2.03.87-2.03s.66.81.98,2.44c.65,3.39,2.05,5.44,4.2,6.16.75.28,1.54.41,2.38.41,1.21,0,2.31-.29,3.29-.88.98-.58,1.63-1.35,1.96-2.3.32-.95.49-1.9.49-2.84,0-1.09-.19-1.99-.56-2.71-.37-.77-.92-1.4-1.64-1.9s-1.93-1.09-3.61-1.76c-2.29-.95-3.9-1.76-4.83-2.44-.93-.68-1.7-1.56-2.31-2.64-.47-.86-1-2.32-1-4.12,0-1.4.26-2.2.41-2.58.24-.64.4-1.1.81-1.82Z"/>
      <path class="cls-4" d="M487.83,386.05c1.54-2.82,4.11-4.23,7.7-4.23,1.35,0,2.87.21,4.55.61,1.54.32,2.45.69,2.73,1.13.28.43.42,1.6.42,3.51,0,3.13-.35,4.7-1.05,4.7-.47,0-.79-.75-.98-2.25-.23-1.86-.84-3.29-1.82-4.29-1.07-1.04-2.5-1.56-4.27-1.56-.75,0-1.38.09-1.89.27-.98.32-1.77.96-2.38,1.94-.61.98-.91,2.08-.91,3.31,0,.73.09,1.36.28,1.91.42,1.5,1.82,2.8,4.2,3.88,3.55,1.64,5.88,2.96,7,3.95.7.64,1.26,1.32,1.68,2.05.46.86.7,2.25.7,4.15s-.23,3.25-.7,4.16c-.98,1.95-2.4,3.27-4.27,3.95-1.03.4-2.45.61-4.27.61-1.91,0-3.64-.23-5.18-.68-1.5-.41-2.43-.82-2.8-1.23-.38-.41-.56-1.25-.56-2.52,0-1.45.13-2.86.38-4.22.26-1.36.55-2.05.87-2.05s.66.82.98,2.45c.65,3.41,2.05,5.48,4.2,6.2.75.28,1.54.41,2.38.41,1.21,0,2.31-.29,3.29-.89.98-.59,1.63-1.36,1.96-2.31.32-.95.49-1.91.49-2.86,0-1.09-.19-2-.56-2.73-.37-.77-.92-1.41-1.64-1.91s-1.93-1.09-3.61-1.77c-2.29-.95-3.9-1.77-4.83-2.45s-1.7-1.57-2.31-2.66c-.47-.87-1-2.33-1-4.15,0-1.41.26-2.21.41-2.6.24-.64.4-1.1.81-1.84Z"/>
      <path class="cls-4" d="M360.48,332.16c.11-.14.27-.18.32-.2,0,0,.24-.07.54-.09.12,0,.25-.02.37-.03.74-.04,1.48-.03,2.23-.03.49,0,.98-.03,1.47-.04.58-.01,1.15-.02,1.73-.03.66,0,1.32-.01,1.98-.01.46,0,.93,0,1.39,0,6.42,0,9.79.14,10.11.43.22.24.33,1.12.33,2.63v2.06l-.06,3.46c0,.54-.21.81-.61.8-.27,0-.47-.12-.6-.35s-.29-.86-.47-1.85c-.31-1.46-.62-2.51-.9-3.13s-.7-1.09-1.24-1.42c-.58-.43-2.21-.67-4.89-.71h-2.41c-1.07,0-1.7.12-1.88.36-.18.24-.27,2.23-.27,5.98v1.56c0,2.04.09,3.3.27,3.77.18.47.63.71,1.34.71h1c1.43-.05,2.36-.31,2.81-.78.44-.47.76-1.54.94-3.2.09-.85.17-1.35.23-1.49s.26-.21.57-.21h.16c.3,0,.44.11.45.34v12.86c0,.53-.22.75-.6.75-.31,0-.51-.1-.6-.28s-.16-.71-.2-1.57c-.13-1.75-.47-2.92-1-3.49-.53-.57-1.54-.85-3.01-.85h-.27c-.98,0-1.57.23-1.77.67-.2.45-.3,1.89-.3,4.31v1.85c0,3.98.13,6.12.4,6.4.27.34,1.34.5,3.21.5,3.08,0,5.13-.43,6.16-1.31s1.67-2.74,1.94-5.59c.13-1.37.23-2.18.3-2.42.07-.23.26-.35.57-.35h.22c.27.03.45.17.46.5l.06,4.76v2.57c0,1.8-.11,2.84-.33,3.13-.22.24-.85.39-1.87.46-1.03.08-3.79.11-8.3.11s-7.39-.07-8.53-.11c-1.13-.04-1.51-.02-1.63-.54-.04-.19.01-.51.12-.7.13-.33.62-.5,1.47-.5h.6c.71,0,1.12-.53,1.24-1.6.11-1.07.17-4.4.17-10v-5.12c0-5.45-.07-8.74-.2-9.86-.13-1.12-.53-1.67-1.2-1.67h-.6c-.85,0-1.34-.17-1.47-.5-.06-.15-.09-.31-.08-.48,0-.14.02-.28.15-.45Z"/>
      <path class="cls-4" d="M459.6,382.19c.11-.14.27-.18.32-.2,0,0,.24-.07.54-.09.12,0,.25-.02.37-.03.74-.04,1.48-.03,2.23-.03.49,0,.98-.03,1.47-.04.58-.01,1.15-.02,1.73-.03.66,0,1.32-.01,1.98-.01.46,0,.93,0,1.39,0,6.42,0,9.79.15,10.1.43.22.24.33,1.12.33,2.65v2.07l-.06,3.48c0,.55-.21.81-.61.81-.27,0-.47-.12-.6-.36s-.29-.86-.47-1.86c-.31-1.47-.62-2.53-.9-3.15s-.7-1.1-1.24-1.43c-.58-.43-2.21-.67-4.88-.72h-2.41c-1.07,0-1.7.12-1.88.36-.18.24-.27,2.24-.27,6.01v1.57c0,2.05.09,3.32.27,3.79.18.48.63.72,1.34.72h1c1.43-.05,2.36-.31,2.81-.79.44-.48.76-1.55.94-3.22.09-.86.17-1.36.23-1.5s.26-.22.57-.22h.16c.3,0,.44.11.45.34v12.94c0,.53-.22.75-.6.76-.31,0-.51-.1-.6-.29s-.16-.72-.2-1.58c-.13-1.77-.47-2.94-1-3.51-.53-.57-1.54-.86-3.01-.86h-.27c-.98,0-1.57.23-1.77.68-.2.45-.3,1.9-.3,4.34v1.86c0,4.01.13,6.16.4,6.45.27.34,1.34.5,3.21.5,3.08,0,5.13-.44,6.15-1.32s1.67-2.76,1.94-5.62c.13-1.38.23-2.19.3-2.44.07-.23.26-.36.57-.36h.22c.27.03.45.17.46.5l.06,4.79v2.58c0,1.81-.11,2.86-.33,3.15-.22.24-.85.4-1.87.47-1.03.08-3.79.11-8.3.11s-7.39-.07-8.53-.11-1.51-.02-1.63-.54c-.04-.19.01-.51.12-.71.13-.33.62-.5,1.47-.5h.6c.71,0,1.12-.54,1.24-1.61.11-1.08.17-4.43.17-10.06v-5.15c0-5.49-.07-8.8-.2-9.92-.13-1.12-.53-1.68-1.2-1.68h-.6c-.85,0-1.34-.17-1.47-.5-.06-.15-.09-.32-.08-.48,0-.15.02-.28.15-.45Z"/>
      <path class="cls-4" d="M389.52,362c.15-.3.51-.39.87-.39.32,0,.95-.04,1.4-.63.08-.1.19-.28.21-.45v-12.91c0-7.38-.08-11.72-.24-13.02-.03-.23-.29-.52-.46-.6-.13-.06-.28-.12-.47-.19-.42-.17-.78-.33-1.07-.49-.29-.17-.44-.36-.44-.59,0-.1.07-.26.2-.49.22-.29,1.96-.42,5.22-.42,5.13,0,8.57.45,10.31,1.33,2.27,1.17,3.41,3.14,3.41,5.91v.77c-.22,3.18-1.58,5.41-4.08,6.67l-1.34.7.87.49c.94.51,1.65,1.33,2.14,2.42s.92,2.92,1.27,5.44c.31,2.25.56,3.63.74,4.14.35,1.22,1.09,1.88,2.21,1.97.4.05.66.12.77.21.11.1.17.33.17.7,0,.7-.78,1.05-2.34,1.05h-1c-1.7-.09-2.78-.49-3.25-1.19-.47-.7-.81-2.38-1.04-5.05-.31-3.93-.85-6.39-1.61-7.38-1.03-1.4-2.32-2.1-3.88-2.1h-.4c-.98,0-1.56.26-1.74.77-.18.51-.27,2.18-.27,4.99v1.06c0,2.86-.02,4.63-.07,5.31-.04.67-.18,1.21-.4,1.58-.58.98-1.8,1.77-3.68,1.76-1.42-.01-1.87-.42-1.87-.42,0,0-.44-.34-.13-.94ZM401.97,334.22c-1.03-.33-2.52-.49-4.48-.49-.45,0-.72.02-.8.07-.45.19-.73.59-.84,1.23s-.17,2.26-.17,4.88c0,2.34.03,3.81.1,4.39.07.59.21.99.44,1.23.36.38,1.05.56,2.07.56.71,0,1.43-.09,2.14-.28,2.54-.51,3.9-2.29,4.08-5.34,0-.14.01-.35.03-.63s.04-.47.04-.57c0-2.85-.87-4.54-2.61-5.05Z"/>
      <path class="cls-4" d="M367.07,412.19c.15-.31.51-.39.87-.39.32,0,.95-.04,1.4-.63.08-.11.19-.28.21-.45v-12.99c0-7.43-.08-11.8-.24-13.1-.03-.23-.29-.53-.46-.6-.13-.06-.28-.12-.47-.19-.42-.17-.78-.33-1.07-.49-.29-.17-.44-.36-.44-.6,0-.1.07-.26.2-.49.22-.29,1.96-.43,5.22-.43,5.13,0,8.56.45,10.3,1.34,2.27,1.18,3.41,3.16,3.41,5.94v.78c-.22,3.21-1.58,5.44-4.08,6.72l-1.34.71.87.49c.94.52,1.65,1.33,2.14,2.44s.91,2.93,1.27,5.48c.31,2.26.56,3.65.74,4.17.35,1.23,1.09,1.89,2.21,1.98.4.05.66.12.77.21.11.1.17.33.17.71,0,.71-.78,1.06-2.34,1.06h-1c-1.7-.09-2.78-.49-3.24-1.2-.47-.7-.81-2.4-1.04-5.09-.31-3.96-.85-6.43-1.61-7.43-1.03-1.41-2.32-2.12-3.88-2.12h-.4c-.98,0-1.56.26-1.74.78-.18.52-.27,2.19-.27,5.02v1.06c0,2.88-.02,4.66-.07,5.34-.04.68-.18,1.21-.4,1.59-.58.99-1.8,1.78-3.68,1.77-1.42-.01-1.87-.43-1.87-.43,0,0-.44-.34-.13-.95ZM379.51,384.23c-1.03-.33-2.52-.49-4.48-.49-.45,0-.72.02-.8.07-.45.19-.73.6-.84,1.24s-.17,2.27-.17,4.91c0,2.36.03,3.83.1,4.42.07.59.21,1,.44,1.24.36.38,1.05.56,2.07.56.71,0,1.43-.09,2.14-.28,2.54-.52,3.9-2.31,4.08-5.37,0-.14.01-.35.03-.63s.04-.47.04-.57c0-2.87-.87-4.57-2.61-5.09Z"/>
      <path class="cls-4" d="M432.44,331.76c.17,0,.76-.1,1.09.93s.94,3.23,1.89,6.61c1.36,4.81,2.74,9.63,4.15,14.46,1.41,4.83,2.2,7.35,2.38,7.53.31.24.91.48,1.81.5.37,0,.79.03,1.05.23s.35.56.35.7c.09.57-.27.8-.97.8l-4.25.06h-2.54c-1.03,0-1.45.04-2.2-.04-.47-.05-.79-.22-.85-.31-.13-.14-.16-.32-.16-.51,0-.48.62-.78,1.87-.93,1.03-.05,1.54-.24,1.54-.57s-.31-1.68-.94-4.03c-.62-2.36-1.05-3.75-1.27-4.18-.13-.28-1.47-.43-4.01-.43s-3.88.15-4.15.43c-.36.38-1.14,2.67-2.34,6.86-.09.48-.13.78-.13.92,0,.67.6,1.03,1.81,1.08.4,0,.67.01.8.03s.25.08.37.14c.15.08.24.44.17.68-.1.6-.74.79-1.63.78h-5.89c-.8,0-1.35-.18-1.38-.78-.07-.48.67-.95,1.41-.93.81.02,1.33-.2,1.57-.32.25-.12.48-.42.7-.89.18-.38,1.67-5.18,4.49-14.42,2.31-7.59,3.7-12.11,4.17-13.55.1-.31.16-.81,1.11-.84ZM434.52,350.08c0-.24-.26-1.28-.77-3.14-.51-1.85-1.02-3.64-1.51-5.35l-.8-2.57h-.07c-.13,0-.76,1.79-1.87,5.36l-1.27,3.78.74-.14s.12-.01.23-.03.19-.04.23-.04c1.29,0,2.61.5,3.95,1.51.76.62,1.14.83,1.14.64Z"/>
      <path class="cls-4" d="M407.89,381.85c.17,0,.76-.1,1.09.93s.94,3.25,1.89,6.65c1.36,4.84,2.74,9.69,4.15,14.55s2.2,7.39,2.38,7.58c.31.24.91.49,1.8.5.37,0,.79.03,1.05.23s.35.56.35.71c.09.57-.27.81-.97.8l-4.25.06h-2.54c-1.03,0-1.45.04-2.2-.04-.47-.05-.79-.22-.85-.31-.13-.14-.16-.32-.16-.51,0-.48.62-.79,1.87-.94,1.03-.05,1.54-.24,1.54-.57s-.31-1.69-.94-4.06c-.62-2.37-1.05-3.77-1.27-4.2-.13-.29-1.47-.43-4.01-.43s-3.88.15-4.15.43c-.36.39-1.14,2.68-2.34,6.9-.09.48-.13.79-.13.93,0,.67.6,1.04,1.8,1.08.4,0,.67.01.8.04s.25.08.37.14c.15.08.24.45.17.68-.1.6-.74.79-1.63.79h-5.89c-.8,0-1.35-.18-1.38-.79-.07-.49.67-.95,1.4-.94.81.02,1.33-.2,1.57-.32.24-.12.48-.42.7-.9.18-.38,1.67-5.22,4.48-14.52,2.31-7.63,3.7-12.18,4.17-13.64.1-.32.16-.82,1.11-.84ZM409.97,400.29c0-.24-.26-1.29-.77-3.16-.51-1.87-1.02-3.66-1.51-5.39l-.8-2.59h-.07c-.13,0-.76,1.8-1.87,5.39l-1.27,3.81.73-.14s.12-.01.23-.04.19-.04.23-.04c1.29,0,2.61.5,3.95,1.51.76.62,1.14.84,1.14.64Z"/>
      <path class="cls-4" d="M451.77,332.2s.2-.22.48-.26c.8-.12,2.6-.09,5.54-.09,4.15,0,6.57.1,7.3.21,1.92.31,2.95,1,2.95,1,0,0,1.2.71,2.2,1.92,1.11,1.56,1.67,3.47,1.67,5.7,0,.71-.07,1.47-.2,2.28-.45,2.42-1.56,4.28-3.35,5.59-1.79,1.3-4.15,1.95-7.09,1.95-1.38,0-2.16.1-2.34.29-.23.24-.33,2.06-.33,5.48,0,3.04.11,4.72.33,5.05.05.07.16.14.33.21.29.11.75.22,1.38.33,1,.17,1.26.31,1.41.73.06.18.07.55-.12.73-.44.43-1.99.29-5.2.29s-4.52.09-5.02-.42c-.09-.14-.13-.33-.13-.57,0-.57.58-.85,1.74-.85.8,0,1.32-.12,1.54-.35.18-.19.27-4.84.27-13.96l-.08-13.39c-.01-.27-.18-.4-.51-.4l-1.09-.03c-1.2-.14-1.73-.43-1.81-.85-.03-.18-.01-.43.13-.57ZM465.43,334.49c-.94-.48-2.23-.74-3.88-.78h-1.54c-.76,0-1.16.12-1.21.35-.13.43-.2,2.78-.2,7.05s.11,6.79.33,7.12c.18.28.6.43,1.27.43.53,0,1.02-.02,1.47-.07,2.59-.14,4.28-.83,5.09-2.07.8-1.18,1.2-3.11,1.2-5.77,0-1.95-.25-3.42-.74-4.42-.36-.81-.96-1.43-1.81-1.85Z"/>
      <path class="cls-4" d="M478.09,332.33c.09-.28.36-.45.8-.5.44-.05,1.87-.07,4.28-.07s3.79.02,4.28.07c.49.05.8.19.94.43.09.19.13.33.13.42,0,.62-.63.93-1.87.93-.85,0-1.34.17-1.47.5-.18.38-.27,2.28-.27,5.7s.09,5.33.27,5.7c.13.24.46.38.97.43s2.09.07,4.72.07,4.2-.02,4.72-.07c.51-.05.84-.19.97-.43.18-.33.27-2.09.27-5.27,0-3.94-.11-6.03-.33-6.27-.22-.15-.61-.25-1.17-.32-.56-.07-1.03-.17-1.41-.32s-.57-.38-.57-.71c0-.19.02-.33.07-.43.09-.28,1.81-.42,5.15-.42s5.06.14,5.15.42c.05.1.07.21.07.36,0,.61-.56.97-1.67,1.07-.76.1-1.25.21-1.47.36-.22.24-.33,5.32-.33,15.25,0,7.8.09,11.86.27,12.19.18.33.6.5,1.27.5,1.07,0,1.61.31,1.61.92,0,.05,0,.17-.03.36-.11.48-1.1.44-1.1.44l-3.62.06h-2.27c-1.7,0-2.44.14-2.81-.36-.14-.18-.2-.35-.2-.5,0-.52.53-.83,1.61-.92.57-.07.97-.2,1.25-.26.11-.02.3-.22.31-.37.05-.77.24-3.02.24-6.79,0-3.57-.09-5.52-.27-5.85-.13-.24-.46-.38-.97-.43-.51-.05-2.04-.07-4.58-.07s-4.19.02-4.68.07c-.49.05-.83.21-1,.5-.27.38-.4,2.52-.4,6.42s.09,5.92.27,6.2c.13.19.71.39,1.74.61s1.54.49,1.54.82c0,.09-.07.43-.27.57-.31.34-1.95.37-4.94.37s-4.72-.04-5.04-.37c-.27-.17-.27-.48-.27-.57,0-.33.51-.6,1.54-.82s1.61-.42,1.74-.61c.18-.38.27-4.92.27-13.61s-.09-13.23-.27-13.61c-.18-.33-.63-.5-1.34-.5-1.25,0-1.87-.33-1.87-1,0-.05.01-.09.04-.14.02-.05.03-.1.03-.15Z"/>
      <path class="cls-4" d="M415.12,366.16c.53-.33,1.01-.5,1.46-.5.89,0,1.58.35,2.07,1.05.29.37.43.97.43,1.79,0,.61-.1,1.13-.31,1.54s-.63.82-1.28,1.23c-.61.45-.91.84-.91,1.17s.34,1.08,1.04,2.25c.69,1.17,1.14,1.75,1.34,1.75s.45-.3.73-.89c.29-.6.49-1.22.61-1.88.04-.29.11-.5.21-.65s.21-.2.33-.16c.2.09.31.29.31.62,0,.54-.2,1.33-.61,2.4-.36.9-.55,1.54-.55,1.91,0,.25.14.52.43.8.28.25.65.37,1.1.37s.81-.04,1.1-.13c.08-.04.2-.06.36-.06.25,0,.37.08.37.25,0,.21-.25.47-.73.8-.53.33-1.18.49-1.95.49-.53,0-.95-.1-1.28-.31-.2-.2-.59-.31-1.16-.31-.53,0-.89.11-1.1.31-.29.21-.9.31-1.83.31-.85,0-1.61-.23-2.26-.68-1.1-.86-1.64-1.99-1.64-3.38,0-.66.14-1.27.43-1.85.36-.62.85-1.17,1.46-1.66l.97-.86-.31-1.04c-.2-.74-.31-1.34-.31-1.79,0-1.31.49-2.27,1.46-2.89ZM415.61,374.64c-.49-.9-.83-1.35-1.04-1.35-.16,0-.33.13-.49.37-.57.62-.85,1.44-.85,2.46,0,1.48.55,2.46,1.65,2.95.28.13.59.19.91.19.57,0,1.04-.21,1.4-.62.2-.21.28-.37.24-.49-.04-.13-.2-.45-.49-.99-.12-.16-.25-.4-.4-.71-.14-.31-.31-.65-.52-1.02-.21-.37-.35-.64-.43-.8ZM417.53,367.21c-.23-.33-.52-.5-.89-.5s-.67.11-.91.31c-.33.21-.49.7-.49,1.48,0,.82.1,1.48.31,1.97.08.21.14.36.18.46.04.11.1.17.18.19s.14.01.18-.03.14-.11.31-.19c.97-.66,1.46-1.5,1.46-2.52,0-.45-.11-.84-.33-1.17Z"/>
      <path class="cls-4" d="M334.04,382.22c.1-.28,2.74-.43,7.92-.43s8.23.15,9.61.43c4.61,1,7.63,3.89,9.07,8.65.36,1.15.54,3.41.54,6.79,0,3.1-.18,5.22-.54,6.36-1.08,3.76-3.07,6.46-6,8.07-1.38.77-2.84,1.26-4.38,1.47-1.54.22-4.35.33-8.45.33-4.82,0-7.35-.15-7.61-.43-.15-.15-.23-.31-.23-.5,0-.52.51-.86,1.54-1,1.49-.19,2.41-1.12,2.77-2.79.15-.62.23-2.95.23-7.01,0-9.76-.18-15.15-.54-16.15-.51-1.47-1.36-2.26-2.54-2.36-.97-.09-1.46-.45-1.46-1.07,0-.15.03-.26.08-.36ZM351.34,384.37c-.92-.33-2.36-.55-4.3-.65-.51-.05-1.13-.07-1.85-.07-.82,0-1.44.17-1.84.5l-.69.5c-.05,2.91-.08,7.31-.08,13.22s-.03,10.32-.08,13.22l.62.43c.36.34,1.33.5,2.92.5,1.43,0,2.84-.14,4.23-.43,1.33-.28,2.46-.85,3.38-1.71,1.13-1.05,1.92-2.51,2.38-4.36.46-1.86.69-4.57.69-8.15,0-4.05-.41-7.06-1.23-9.04-.82-1.98-2.2-3.3-4.15-3.97Z"/>
      <path class="cls-4" d="M425.74,382.71c0-.57,1.31-.86,3.92-.86h2.23c3.59,0,5.51.14,5.77.43.25.29.29.57.11.86-.18.29-.5.45-.96.5-1.28.15-2.07.54-2.38,1.18-.31.64-.46,2.21-.46,4.69,0,2.96.28,4.44.84,4.44l.15-.08h.16c.31-.09,2-1.62,5.07-4.58,2.97-2.92,4.46-4.61,4.46-5.09,0-.23-.28-.4-.84-.5-.57-.09-.95-.29-1.15-.57-.21-.29-.18-.57.08-.86.25-.29,2.07-.43,5.45-.43,2.25,0,3.75.05,4.5.14.74.1,1.11.29,1.11.58,0,.19-.08.38-.23.57-.21.38-.85.57-1.92.57-.97,0-1.82.15-2.54.43-.51.19-2.38,1.79-5.61,4.8-3.23,3.01-5.05,4.83-5.46,5.45-.2.34-.31.89-.31,1.65,0,.72.1,1.27.31,1.65.26.48,2.42,2.86,6.5,7.16,4.08,4.3,6.26,6.52,6.57,6.66.21.1.65.2,1.34.32.69.12,1.28.27,1.77.43.48.17.73.4.73.68,0,.19-.08.36-.23.5-.26.29-2.41.43-6.46.43s-6.2-.15-6.3-.43c-.26-.76.15-1.24,1.23-1.43.56-.05.84-.29.84-.72,0-.38-1.45-2.16-4.34-5.33-2.9-3.18-4.52-4.76-4.88-4.76s-.59.37-.69,1.11-.15,2.33-.15,4.76c0,2.92.1,4.47.31,4.66s.77.29,1.69.29c1.28,0,1.92.31,1.92.93,0,.14-.03.26-.08.36-.1.24-.44.4-1,.47s-2.15.11-4.77.11-4.24-.04-5.03-.11-1.19-.27-1.19-.61c0-.15.08-.33.23-.58.2-.38.79-.57,1.77-.57s1.64-.09,1.85-.29c.25-.24.38-5.04.38-14.4,0-7.4-.11-11.42-.31-12.03-.31-1.05-1.05-1.58-2.23-1.58-.41,0-.81-.1-1.19-.32-.38-.22-.58-.44-.58-.68Z"/>
    </g>
    <g>
      <path class="cls-2" d="M314.43,185.32c2.41-.4,14.04-.6,34.9-.6s31.69.73,32.3,1c1.31.58,1.55,1.6,1.51,2.44-.17.95-.17.99-1.31,2.76-3.31,5.14-5.42,11.27-5.42,19,0,2.4.2,4.8.6,7.2.4,2.13.6,3.74.6,4.8,0,.67-.13,1.13-.4,1.4-.13.13-.34.2-.6.2-.67,0-3.54-1.2-8.62-3.6-7.36-3.73-12.91-5.6-16.65-5.6h-1.4l-3.01.2-.4,27.2c0,2.67-.03,6.37-.1,11.1-.07,4.74-.1,8.04-.1,9.9,0,2.4.03,5,.1,7.8.07,2.8.1,4.27.1,4.4.27,4.27,1.03,6.8,2.31,7.6,1.27.8,5.11,1.2,11.53,1.2h3.41c5.08,0,8.02-.67,8.83-2,.8-1.33,1.27-5.8,1.4-13.4v-7.2c0-4.13-.54-7.27-1.6-9.4-2.28-5.07-5.89-9.07-10.83-12-2.68-1.6-4.08-2.67-4.21-3.2-.13-.26-.2-.53-.2-.8,0-.93.87-1.4,2.61-1.4,1.2,0,3.01.2,5.42.6,2.81.4,5.08.6,6.82.6,3.34,0,7.89-.93,13.64-2.8,4.14-1.33,8.42-2,12.84-2,6.02,0,10.3,1.33,12.84,4,.8.8,1.2,1.53,1.2,2.2,0,1.07-1.61,2.2-4.81,3.4-2.41.8-4.01,1.8-4.81,3-.8,1.47-1.27,10-1.4,25.6-.27,11.87-.47,19.07-.6,21.6-.13,2.53-.6,4.6-1.4,6.2-1.34,3.07-2.71,5.33-4.11,6.8-1.4,1.47-3.44,2.87-6.12,4.2l-5.22,2.34-33.69.06c-15.92,0-25.64-.1-29.19-.3-3.54-.2-5.99-.63-7.32-1.3-1.6-.94-2.94-2.2-4.01-3.8-.8-1.07-1.27-4.07-1.4-9-.13-4.93-.34-21.07-.6-48.4-.13-9.73-.2-21.07-.2-34,0-14.27.27-21.87.8-22.8,1.47-2.67,3.48-4.4,6.02-5.2Z"/>
      <path class="cls-2" d="M422.16,185.32c.99-.7,2.09-.67,2.46-.7,4.9-.46,29.84-.97,34.99.7.83.27.6,1.34.6,2.45,0,1.32-.6,2.78-1.79,4.37-1.19,1.72-1.79,2.71-1.79,2.98s6.14,6.35,18.42,18.26c12.27,11.91,18.68,17.87,19.21,17.87.4,0,.6-5.95.6-17.87v-17.87l-2.79-3.57c-1.86-1.98-2.79-3.38-2.79-4.17,0-.4.33-.92.99-1.59.93-.93,7.76-1.39,20.51-1.39s19.58.47,20.51,1.39c.8.53,1.19,1.13,1.19,1.79,0,.79-.93,2.12-2.79,3.97l-2.99,3.18v103.23l3.19,4.17c2.12,2.51,3.19,4.1,3.19,4.76,0,.4-.33.92-1,1.59-.8.79-7.3,1.19-19.51,1.19s-18.51-.13-19.31-.4c-.8-.27-1.19-.99-1.19-2.18,0-1.46.46-3.04,1.39-4.76l1.59-2.98-3.19-2.78c-.53-.4-1.73-1.46-3.58-3.18-1.86-1.72-4.28-3.87-7.27-6.45-2.99-2.58-5.74-4.99-8.26-7.25l-15.73-14.09-.2,16.28v9.93c0,4.63.33,7.34,1,8.14,3.45,4.37,5.18,6.75,5.18,7.15,0,.13-.13.46-.4.99-.4.66-1.56,1.09-3.48,1.29-1.93.2-7.4.3-16.42.3-12.61,0-19.44-.13-20.51-.4-1.33-.4-1.99-1.06-1.99-1.99,0-.79.73-2.45,2.19-4.96l2.59-4.37v-102.63l-2.19-2.98c-1.46-2.12-2.19-3.77-2.19-4.96,0-.28.38-1.62,1.57-2.45Z"/>
      <path class="cls-2" d="M686,196.44c2.03-4.71,5.52-7.84,10.46-9.41,4.94-1.57,11.95-2.35,21.04-2.35,1.1,0,2.98.04,5.64.12,2.66.08,4.7.12,6.11.12,13.32.16,21.24.86,23.75,2.12l2.32,1.24c.76.41,1.67.46,2.48.15l2.96-1.15c2.82-1.1,5.41-1.65,7.76-1.65,3.6,0,7.05.94,10.34,2.82,4.07,2.35,6.11,4.47,6.11,6.36s-1.8,2.82-5.41,2.82c-2.35,0-4.15.63-5.41,1.88-.47.47-.79,1.26-.94,2.35-.16,1.1-.35,5.22-.59,12.36-.23,7.14-.35,16.91-.35,29.3v57.66c0,66.53.31,100.42.94,101.68,1.88,3.77,4.23,5.88,7.05,6.36,3.13.78,4.23,2.04,3.29,3.77-.16.63-1.49.94-4,.94-.47,0-1.26-.04-2.35-.12-1.06-.08-1.97-.11-2.74-.12-.06,0-.11,0-.17,0-8.27-.48-14.27-2.44-18.02-5.88-6.11-5.81-10.74-8.71-13.87-8.71-1.88,0-3.21-.39-4-1.18-.63-.63-.94-15.3-.94-44.01,0-24.55-.17-38.55-.52-41.99-.06-.56-.73-.74-1.11-.53-1.15.63-2.95,2.21-5.42,4.74-3.29,3.37-6.04,6.71-8.23,10-2.2,3.45-4.2,7.14-5.99,11.06-1.8,3.92-3.14,7.02-4,9.3-.86,2.28-2.2,6.47-4,12.59-1.8,6.12-3.1,10.28-3.88,12.47-1.88,5.49-3.61,11.77-5.17,18.83-.16.63-.35,1.45-.59,2.47-.24,1.02-.39,1.73-.47,2.12-.08.39-.23.86-.47,1.41-.23.55-.55.9-.94,1.06-.39.15-.9.31-1.53.47-.63.15-1.41.23-2.35.23-5.64,0-11.75,2.35-18.34,7.06-4.23,3.14-8.15,5.49-11.75,7.06-3.29,1.57-6.35,1.8-8.85,1.8,0,0-2.65,0-2.74,0-10.75-.83-19.16-6.64-25.55-18.51-3.45-6.59-5.17-12.24-5.17-16.95,0-2.35.94-2.82,2.82-1.41l2.23,2.45c.08.09.16.19.23.29,3.58,5.24,7.86,8.49,12.83,9.73,1.57.31,2.66.47,3.29.47,4.23,0,8.78-2.39,13.64-7.18,4.86-4.79,11.05-12.75,18.57-23.89,5.01-7.37,11.2-17.42,18.57-30.13,7.37-12.71,11.05-19.61,11.05-20.71,0-.31-1.73-1.41-5.17-3.3-3.61-1.88-6.35-3.84-8.23-5.88-1.73-1.88-2.86-3.14-3.41-3.77-.55-.62-1.1-2.67-1.65-6.12-.55-3.45-.82-7.33-.82-11.65v-32.83c0-29.66.55-45.74,1.65-48.25ZM719.38,209.14c-2.98-1.73-6.66-2.59-11.05-2.59-1.26,0-2.62,1.52-2.72,3.33-.22,3.99-.33,12.13-.33,24.44v20.99c-.05,4.56,1.32,8.29,4,11.26,3.92,5.18,8.42,9.46,13.52,12.83,5.09,3.37,9.68,5.06,13.75,5.06,0,0,3.86.55,4.01-4.27.18-5.87.1-13.71.22-23.5.1-8,.2-14.73.2-20.18,0-6.38-1.97-10.01-2.49-10.84-.07-.11-.14-.22-.23-.32l-1.72-2.08c-4.86-6.12-10.58-10.83-17.16-14.12Z"/>
      <path class="cls-4" d="M412.48,236.1s-1.93-4.01-9.8-5.13-15.64,16.45-15.64,16.45c0,0,.97.75,1.23,4.14s1.55,36.48-3.9,41.4c-.99.9-1.99,1.96-2.36,3.22-1.65,5.64,1.99,13.9,1.99,13.9,0,0,.09.02.63-.1.75-.17,2.08-.59,2.94-.99,2.89-1.32,6.75-3.77,8.33-6.07.7-1.02,1.77-2.31,2.61-3.93,1.27-2.44,2.16-4.73,2.33-7.86.21-4.02,1.22-42.28,1.22-42.28,0,0,.04-2.51.65-5.07.56-2.35,2.91-4.2,6.19-3.74"/>
      <path class="cls-4" d="M363.13,200.87s6.86-17.17,18.39-15.17c.65.11,1.86,1.18,1.62,2.45-.39,2-2.72,4.75-3.61,6.92,0,0-3.85,8.48-2.66,21.13.12,1.33.42,2.43.54,3.32.4,2.78.12,3.65-.11,3.72-.45.14-1.37-2.91-1.37-2.92l-3.79-5.57-9.01-13.76"/>
      <path class="cls-4" d="M510.71,200.13c4.56-6.81,11.6-11.03,20.81-13.34.24-.06.52.05.6.14.37.43.38.91.36,1.15-.01.1-.05.22-.08.33-.18.5-.45.97-.82,1.43-.75.99-2.65,2.91-4.55,4.94-.3.33-.33.91-.33.91v102.08s.09.69.25.9c.7.9,2.69,3.47,4.13,5.3.41.52.71.98.99,1.33.33.4.84,1.17.97,1.8.07.35-.02.65-.22.84-12.17-4.73-23.14-10.27-22.13-23.82v-84.01Z"/>
      <path class="cls-4" d="M753.37,209.6c-2.29-14.27,6.44-22.92,15.97-23.97,7.4,0,17.97,6.82,15.15,10.62l-10.61,1.89-.28,2.21c-.23.41-.34.93-.39,1.5l-.94,45.58.08,102.61.2,30.69.63,21.2c.01.4.3,1.46.46,1.75,1.09,1.98,2.32,3.19,3.75,4.29.22.17,1.16.59,1.4.64,2.49.55,4.3,1.47,4.77,2.34.63.81.14,1.75-.13,2.26l-24.01-7.91-4.97-22-3.34-172.08,2.24-1.62Z"/>
      <path class="cls-1" d="M520.7,301.62c3.33,1.53,6.66,3.06,10,4.54.8.35,2.88.97,2.37,1.79-.76,1.39-2.49,1.69-3.52,1.76-2.72.19-3.08.12-4.67.22-7.18.44-21.59.09-21.59.09-3.26,0-6.27.03-9.47-.14,0,0-1.83-.19-1.94-1.69-.14-2.04.48-4.17,1.57-5.93.4-.64,1.02-1.43,1.06-2.3,0-.14.01-.57-.42-.95-5.32-4.57-10.29-8.91-15.42-13.44-4.95-4.37-9.82-8.76-14.76-13.15-1.67-1.48-3.07-2.85-5.3-4.8-.27-.22-1.5-1.4-1.6-1.63-2.13-5.05-2.09-11.45-8.51-16.78-1.37-1.14-1.98-.81-2.56-.16-3.53,3.91-4.07,8.1-4.53,12.79-.39,3.98-.44,7.94-.44,11.92,0,5.97-.09,11.93,0,17.89.02,1.15.43,2.03.72,2.3,2.24,2.16,4.52,4.18,6.9,6.12,7.02,5.54,9.86,5.91,12.32,6.73.74.25,1.65.36,2.09.68.96,1.13-1.17,2.11-3.08,2.35-.45.05-1.43.09-1.82.1-5.51.1-8.88.13-14.39.2-2.72.04-7.35.03-10.06-.01-3.35-.06-6.48-.07-9.82-.17-.48-.02-1.61-.15-2.05-.31-1.88-.65-2.15-1.86-1.2-3.75,1.06-2.13,1.32-2.54,2.55-4.58.68-1.13,1.63-4.36,1.63-5.7-.03-29.95.06-88.68.09-98.54,0-.93-.48-1.89-1.67-3.59-1.21-1.27-1.79-2.74-2.43-4.31-.15-.6-.24-1.1-.21-1.49.04-.6.29-.99.45-1.27.21-.35.62-.64.78-.7.66-.43,1.77-.18,1.79-.19,0,0,1.74.21,13.35,11.15,1.53,1.52,3.34,2.87,4.45,4.65.96,1.54,44.89,48.34,54.39,57.84,3.62,3.63,6.59,7.11,9.1,10.37,7.57,9.84,5.25,17.02,6.06,19.58,3.07,9.77,8.1,11.46,9.79,12.55Z"/>
      <path class="cls-1" d="M706.05,208.3c-1.47-6.53-7.73-10.84-7.73-10.84,0,0,7.16-2.08,9.31-2.26,6.61-.85,9.4-.08,13.97.56,1.65.23,3.23.59,4.84,1.03,6.64,1.02,18.22,6.16,18.97,6.63,1.76,1.09,3.86,1.81,7.29,5.4,4.39,4.37,3.97,13.79,4.06,16.85.1,1.66-.06,2.91-.06,4.57.02,17.06.07,34.11-.04,51.17-.03,4.76-.69,9.5-2.42,14.01-.11.3-1.48,3.87-.84,5.58,1.47,3.19,1.57,13.61,1.56,18.71-.03,17.93,0,35.87.03,53.8,0,3.1.14,6.2.3,9.3.04.76.3,1.57.67,2.24,2.27,4.11,4.41,8.28,6.28,12.6.63,1.45,1.45,2.83,2.29,4.18,1.74,2.79,4.35,4.65,7.2,6.15,1.82.96,3.65,1.98,5.74,2.33,1.02.17,2.03.38,3.06.48,1.2.12,2.73.4,3.16,1.83,0,1.05-1.06,1.4-2,1.39-2.4.21-6.34.04-9.29-.31-3.24-.39-6.36-.72-9.42-1.8-2.57-.91-5.67-2.65-7.68-4.53-2.38-2.23-4.47-4.27-7.29-5.98-2.01-1.22-4.38-2.11-6.77-2.12-.69,0-2.08-.08-2.42-.51-.93-.39-.83-1.89-.88-2.98-.08-1.67-.45-12.32-.55-23.94-.09-9.4.1-19.48-.04-25.5-.24-10.43-.1-20.86-.24-31.29-.03-2.16-.49-4.13-1.63-6.08-1.89-3.22-14.73-6.75-15.4-7.42s-.57-1.79-.68-2.23c.43-3.18,17.1-3.24,18.03-3.16,4-.11,9.63,3.54,9.28-.24-1.89-3.78-3.76-7.57-5.67-11.33-.37-.73-.58-1.44-.58-2.26.02-11.24-.2-22.48.1-33.71.17-6.13.32-20.08-2.42-23.11-2.1-2.39-2.89-3.63-5.06-5.95-4.09-3.81-7.6-6.82-12.6-9.42-2.5-1.31-4.95-2.62-7.69-3.06-.7-.11-2.25-.28-2.97-.29-1.19-.02-2.55-.17-3.75,1.57Z"/>
      <path class="cls-1" d="M652.23,414.06c-6.28.07-12.14-1.82-16.87-5.7-5.54-4.56-9.3-10.9-12.16-17.37-1.19-2.69-2.32-5.61-2.79-8.52-.37-1.56-.35-2.89-.21-4.92.13-1,1.04-1.29,1.04-1.29,0,0,.99-.37,1.81.42,3.19,2.52,11.38,18.41,26.03,10.92,0,0,1.67-1.12,2.39-1.61,6.75-6.18,15.91-18.46,20.21-24.68,4.7-6.81,9.18-13.77,13.46-20.85,3.5-5.78,6.84-11.65,10.21-17.51,1.98-3.45,3.91-6.92,5.81-10.42.71-1.3,1.33-2.66,1.96-3.99.14-.3.02-.61-.21-.8-.82-.71-2.48-1.36-3.32-1.87-1.97-1.2-3.9-2.24-5.87-3.44-2.98-1.82-6.25-5.39-7.19-7.11-1.88-2.73-2.12-7.88-2.14-9.38-.57-28.32-.19-71.98-.12-84.35.01-2.47,1.33-4.76,2.08-6.27,1.26-2.52,3.41-4.51,4.48-5.36.39-.31,1.05.04,1.26.28,2.08,2.38,4.14,4.77,6.26,7.2-.28.53-.5.93-.72,1.34-.98,1.84-1.59,3.78-1.83,5.87-.43,3.81-.49,7.62-.51,11.44-.07,14.34-.21,28.68-.26,43.02-.01,2.78.31,5.53,1.14,8.22,2.28,8.95,4.65,16.52,9.56,20.36,2.62,1.67,5.2,3.42,7.71,5.25,2.12,1.55,4.1,3.28,6.17,4.91.86.68,1.02,1.47.77,2.51-1.21,4.96-2.94,9.71-5.65,14.06-5.39,8.66-10.24,17.62-14.58,26.84-2.4,5.11-4.65,10.29-7.03,15.41-3.25,7-5.73,14.27-9.01,21.26-.34.71-5.81,12.45-8.13,16.6-6.14,10.97-13.06,19-23.72,19.53Z"/>
      <path class="cls-1" d="M314.43,185.32s-.63,2.41.1,3.77c1.12,2.22,2.36,3.82,4.29,5.96,2.94,2.79,5.74,5.73,8.65,8.55.81.78,1.2,1.9,1.03,3.01-.54,3.53-1.03,52.76-1.12,62.71-.02,2.09.28,12.41.77,17.1.07.7.76,1.66,1.4,2.43s1.51,1.46,2.45,1.93c1.26.64,3.19,1.58,4.44,2.01.08.03,6.61,2.32,11.6,2.92,6.14.73,26.43,5.79,30.31-2.55,1.44-3.09-3.4-9.95-6-11.1.29-.34.57-.75.98-3.33.42-3.34.41-4.68.54-7.47.1-2.4.08-4.73.08-7.06,0-1.75.03-3.47-.1-5.24-.3-4.17-1.09-6.67-2.95-9.79-1.89-3.18-4.08-5.54-6.87-7.62-.78-.58-1.65-1.21-2.54-1.74-.99-.58-3.33-1.89-4.01-2.82-.75-1.02-.55-2.12.81-2.49,1.44-.41,5.26,1.88,8.03,3.16,3.25,1.5,6.65,2.66,9.96,4.04,2.84,1.18,5.64,2.46,8.45,3.7.27.12,2.73,1.31,3.37,4.52.95,6.98.46,14,.42,20.99-.03,5.31-.57,10.62-1.45,15.88-1.02,4.24-1.89,5-2.44,5.86-1.86,2.86-3.94,2.71-1.1,9.01.77,1.85,1.65,3.96,2.52,6.07.36,1.68-1.4,2.26-1.4,2.26,0,0-.49.15-1.39.15-18.95,0-36.3.05-55.26,0-3.02,0-7.32.07-11.21-.32-4.35-.42-7.5-3.17-8.47-9.05-.53-4.04-.25-8.28-.28-12.32-.08-9.56.12-19.13-.24-28.68-.35-9.31-.14-18.62-.21-27.93-.03-4.29-.11-37.49-.02-38.96.04-.71.34-1.68.49-2.01,1.21-2.54,2.97-4,4.55-4.89,1.09-.62,1.83-.67,1.83-.67Z"/>
      <g>
        <path class="cls-2" d="M90.57,184.6c1.9-.31,7.98-.47,18.26-.47h6.88c12.64.16,20.94.55,24.9,1.18,3.95.63,7.35,2.21,10.2,4.73,2.37,2.05,3.87,4.34,4.5,6.86.63,3.78.95,16.01.95,36.67v10.64c0,22.08-.08,35.37-.24,39.86-.16,4.49-.63,7.53-1.42,9.11-2.37,4.58-6.43,8.97-12.91,12.28-3,1.42-4.42,2.11-4.42,2.58,0,.79,3.46,7.65,11.29,20.97,7.83,13.33,12.13,20.38,12.92,21.17l3.79,5.68c11.86,17.98,21.1,28.54,27.74,31.7,2.21,1.1,4.42,1.66,6.64,1.66,4.27,0,9.43-2.49,14.96-8.32,2.85-3,4.48-4.93,5.43-4.93.16,0,.31.08.47.24.63.63.47,2.99-.47,7.1-2.22,8.83-5.97,15.97-11.26,21.41-5.3,5.44-11.34,8.48-18.14,9.11-.47,0-1.03.04-1.66.12-.63.08-1.11.12-1.42.12-4.9,0-10.91-2.52-18.02-7.57-8.85-5.99-15.97-8.99-21.34-8.99-2.37,0-3.91-.4-4.62-1.18-.71-.79-1.3-2.68-1.78-5.68-.16-1.42-1.42-5.68-3.79-12.77-1.58-4.42-3.72-11.2-6.4-20.34-3.95-13.25-8.46-23.73-13.51-31.46-2.22-3.31-4.98-6.7-8.3-10.17-1.86-1.95-3.35-3.35-4.47-4.2-.87-.67-2.14-.23-2.22,1.31-.28,5.13-.42,18.79-.42,40.97,0,28.7-.4,43.45-1.18,44.24-.63.63-1.82.95-3.56.95-2.85,0-7.59,2.92-14.23,8.75-3.95,3.79-10.19,5.58-18.73,5.58-3.95,0-6.37.02-7.24-.14-.87-.16-1.3-.55-1.3-1.18,0-.95,1.34-2.13,4.03-3.55.32-.16.87-.4,1.66-.71,3.08-.68,4.07-4.46,4.62-10.05.55-5.6.83-23.3.83-53.11v-44c0-66.71-.4-100.61-1.19-101.72-.63-.95-2.77-1.73-6.4-2.37-3.64-.63-5.45-1.5-5.45-2.6,0-.79.55-1.81,1.66-3.08,3.95-4.26,9.25-6.39,15.89-6.39,2.37,0,4.58.4,6.64,1.18,2.05.95,3.71,1.42,4.98,1.42.79,0,1.9-.36,3.32-1.07s2.61-1.22,3.56-1.54ZM113.57,208.97c-4.74-2.21-8.69-3.31-11.86-3.31-.95,0-1.58.16-1.9.47-.47.16-.71,9.54-.71,28.15v21.09c-.03,4.13.91,7.69,3.32,10.37,4.42,5.52,9.28,10.02,14.58,13.48,5.29,3.47,10,5.2,14.11,5.2,2.62,0,4.02-1.29,4.03-4.05v-46.75c-.14-3.19-1.25-6.28-3.32-9.29-6.17-7.41-12.25-12.54-18.26-15.38Z"/>
        <path class="cls-4" d="M156.14,277.52c0,5.51.39,11.11-1.14,15.21-2.21,5.88-6.9,9.32-9.88,10.69l-6.48-12.86,1.38-17.67c.6-.45.82-1.06.84-1.76l.26-50.82c-.02-.34-.23-1.58-.29-1.72-.7-2.51-40.48-12.55-45.92-22.7-1.13-2.1-12.55-8.8-12.25-8.78.09,0,.89.11,1.05.09,1.01-.12,2.39-.61,3.88-1.34s2.12-1.13,3-1.26c2.22-.35,11.82-.47,15.28-.47,9.26-.2,19.95-.1,27.84.36,11.24.66,16.48,1.51,20.13,5.31,2.44,4.95,2.1,15.85,2.44,24.71"/>
        <path class="cls-4" d="M120.85,300.44l16.41,7.61,13.94,24.91s9.08,15.92,19.79,30.86c9.41,13.11,20.01,25.68,27.66,25.52,5.64-.12,8.38-2.14,8.76-2.37,5.39-3.4,11.21-10.89,12.55-10.61,4.35.93-6.15,17.94-23.3,23.78-19.38,6.59-37.53-21.62-37.53-21.62,0,0-39.75-71.78-38.28-78.08Z"/>
        <path class="cls-1" d="M65.86,199.1c-.52-.4-1.85-1.02-4.24-1.5-3.06-.62-6.58-.96-7.15-2.85-.19-2.26,4.45-3.03,8.13-3.54,3.45-.49,6.84-.28,9.88,1.36,2.51,1.35,8.11,7.54,10.63,10.15.4.41.61.96.61,1.53-.1,11.56-.19,23.11-.24,34.67-.03,6.78-.09,13.56.02,20.33.14,8.9,2.51,14.35,3.12,16.26,1.54,4.82,5.19,13.15,6.12,13.88.5.4,1.69.89.4.93-1.44.04-.93.87-1.32,1.27-.46.47-.84.9-1.06,1.24-.34.54-.67,1.29-1.41,2.74-.43.84-.84,1.69-1.21,2.55-1.51,3.56-2.02,7.35-2.26,11.16-.27,4.2-.47,8.42-.5,12.63-.08,11.54.28,23.08-.23,34.6-.38,8.68-.17,17.36-.06,26.04.03,2.39.34,27.75-11.29,30.72-1.75.47-6.2.77-8.11.78-1.67,0-5.2-.02-7.9,0-.79,0-1.35-.93-1.4-1.49-.05-.63-.01-.99.41-1.46.9-1.01,3.33-2.56,5.64-3.52.24-.1,2.24-.79,2.6-2.73.09-.49,2.18-176.48,1.94-186.2-.04-1.79.11-7.16-.27-14.31-.11-2.18-.27-4.35-.27-4.35-.02-.28-.4-.77-.58-.9Z"/>
        <path class="cls-1" d="M201.85,410.69c-2.18,1.51-6.67,3.43-12.68,3.42-4.06,0-7.54-.48-8.8-.96-2.25-.84-3.94-1.72-5.72-2.73-2.35-1.34-3.71-2.39-5.51-3.59-2.94-1.96-8.92-5.68-14.52-7.41-2.64-.82-7.13-1.11-8.38-1.35-.97-.19-1.8.08-3.09-1.3-.24-.26-.41-.81-.9-2.51-.5-1.73-.64-3.1-.72-3.46-.44-1.84-.83-3.69-1.41-5.48-1.95-5.98-4.05-11.91-5.96-17.91-1.34-4.2-2.45-8.47-3.71-12.7-.4-1.36-1.01-2.65-1.43-4-1.34-4.3-2.97-8.5-4.84-12.59-1-2.19-2.61-5.88-5.41-10.29,0,0-5.87-8.86-12.51-14.73-.27-.24-.53-.43-1.02-.84-1.23-.93-1.75-1.26-3.33-2.85-3.4-3.41-8.66-12.59-10.12-17.8-.37-1.34.71-2.12.71-2.12,0,0,7.71,1.19,10.73,2.72,1.22.31,2.37.91,3.57,1.34,4.14,1.49,7.9,3.77,11.79,5.78,1.22.63,2.03,1.44,2.28,2.81.13.7.4,1.38.55,2.07.81,3.87,2.56,7.36,4.59,10.69,4.34,7.14,8.48,14.4,12.09,21.94,2.55,5.3,4.89,10.7,7.45,16,3.8,7.87,7.78,15.66,11.54,23.56,1.14,2.39,2.73,4.07,4.91,5.58,4.12,2.86,8.01,6.06,11.94,9.18,3.18,2.53,6.42,4.97,9.86,7.13,2.9,1.82,4.98,2.32,8.3,2.69,3.64.41,13.48-4.8,16.13-6.93.68-.55.61,12.44-6.4,16.65Z"/>
        <path class="cls-1" d="M99.82,206.13c-2.05-2.18-3.29-5.53-4.92-10.23,2.22-.93,4.59-1.08,6.92-1.13,2.62-.06,5.26.14,7.87.46,6.34.78,12.6,1.96,18.65,4.08,2.7.95,5.36,2.03,8.08,2.95,9.46,4.81,9.93,24.43,9.93,28.1.02,16.98.03,33.96-.02,50.95,0,1.97-.23,3.97-.61,5.91-.39,1.97-3.31,4.63-3.31,4.63,0,0-2.11,1.84-2.99.21-1.07-2.05-2.09-4.12-3.16-6.17-.6-1.15-1.43-2.23-1.43-3.55.07-10.35.16-27.01.11-29.7s-.24-12.85-.19-18.59c-.58-3.35-.99-6.47-2.18-8.02-2.38-3.2-3.01-3.94-5.83-6.75-3.27-3.27-6.88-6.31-10.92-8.58-2.84-1.6-5.88-2.89-9.04-3.72-1.37-.36-5-1.27-6.94-.85Z"/>
      </g>
      <path class="cls-1" d="M494.47,231.79c-.41-.5-.19-.46-.1-.78.05-.17.1-.59.13-.88.13-1.02.1-3.13.1-4.15.02-9.71,0-19.43.03-29.14,0-1.33-.36-1.94-1.44-3.26-.81-1.1-1.42-1.63-2.21-2.61-.35-.43-1.18-1.38-1.18-1.38,0,0-.73-1.09-.68-1.93.06-.93.65-1.24,1.11-1.61.46-.32,1.1-.47,1.75-.47.97,1.96,1.8,2.53,3.68,3.09,4.19,1.25,7.47,3.84,10.56,6.75,1.22,1.15,2.34,2.4,3.58,3.52.9.81,1.23,1.71,1.22,2.93-.05,7.24-.11,14.49,0,21.74.07,4.55-.33,15.67-.41,22.75-.03,2.17.03,5.54.03,5.54-1.85-6.14-6.3-9.62-16.2-20.12Z"/>
      <path class="cls-1" d="M784.43,196.5c-.37.27-.75.55-1.16.72-1.02.42-2.17.62-3.29.48-.42-.05-2.37.15-2.93.34-1.47.49-2.03.63-3.44,2.3-.69-.72-1.37-3.73-.5-5.52.8-2.32,1.8-2.5,2.74-2.89,1.58-.27,2.45-.22,3.89.17,1,.27,2.64,1.11,3.36,1.5,2.15,1.17,1.88,2.14,1.31,2.9Z"/>
      <path class="cls-1" d="M411.37,238.84c-1.38,1.06-3.34,1.57-4.16,1.81-1.03.3-2.66,1.18-3.57,1.99-.49.44-.82.75-.89,1.14-.22-2.16.67-6.8,3.15-8.21,1.12-.64,2.95-.96,4.69-.6.24,0,1.92.72,2.04,1.46.13.86-.18,1.66-1.26,2.41Z"/>
      <path class="cls-1" d="M377.54,222.8c-.24,1.38-1.95.61-2.86.19-4.29-1.78-4.43-1.93-8.44-3.82-2.89-1.36-5.73-2.73-9.22-3.81-.68-.16-3.59-.86-4.31-.87-2.09-.18-4.16-.01-5.79.06-1.48-1.53-4.33-9.57-5.75-13.27-.17-.44-.47-1.35.55-1.66,4.91-.64,9.83-1.07,14.78-.59,4.38.48,6.24,1.08,6.92,2.2,1.7,2.78,3.49,5.5,5.18,8.28,1.74,2.86,3.72,5.54,5.76,8.19,1.25,1.63,2.18,2.89,3.18,5.1Z"/>
      <path class="cls-2" d="M574.93,185.1c.4-.66,5.95-.9,16.66-.9h15.28c19.18.13,29.44.53,30.76,1.19.53.27.79.6.79.99,0,.79-.79,2.18-2.38,4.17l-2.38,3.57,2.78,10.91c15.21,56.21,27.58,89.01,37.11,98.4,2.51,2.51,3.64,4.1,3.37,4.76-.13.53-9.59.79-28.38.79h-10.32c-7.67,0-12.57-.1-14.69-.3-2.12-.2-3.17-.7-3.17-1.49,0-.4.46-1.52,1.39-3.37.92-2.11,1.39-3.64,1.39-4.56,0-1.85-1.26-5.29-3.77-10.32-7.28-13.62-11.38-20.43-12.3-20.43-.13,0-.79,1.32-1.98,3.97-1.19,2.65-2.52,5.89-3.97,9.72-1.46,3.84-2.65,7.21-3.57,10.12-.79,2.38-1.19,4.36-1.19,5.95,0,2.25.92,4.3,2.78,6.15,1.45,1.46,2.18,2.38,2.18,2.78,0,.79-1.72,1.29-5.16,1.49-3.44.2-11.31.3-23.61.3-18.65,0-27.98-.4-27.98-1.19,0-.66,1.19-2.18,3.57-4.56,2.25-2.25,4.37-5.36,6.35-9.32,7.41-15.6,14.95-44.24,22.62-85.9l2.58-13.89-2.58-3.97c-1.72-2.64-2.44-4.38-2.18-5.05ZM607.47,211.38c-.4-.66-.79-.99-1.19-.99-.53,0-1.39,1.79-2.58,5.36-2.51,7.67-6.35,14.88-11.51,21.62-.53.79-1.16,1.66-1.89,2.58-.73.93-1.32,1.69-1.79,2.28-.47.6-.76.96-.89,1.09-.93,1.46-.47,2.18,1.39,2.18.53-.13,1.12-.26,1.79-.4,1.72-.53,3.7-.79,5.95-.79,6.75,0,14.69,3.97,23.81,11.9,2.91,2.51,4.7,3.77,5.36,3.77.13,0,.26-.07.4-.2.66-.66.53-1.72-.4-3.17-8.6-14.68-14.09-27.44-16.47-38.29-1.06-4.23-1.72-6.55-1.99-6.94Z"/>
      <path class="cls-4" d="M634.03,194.25c.86,4.23,5.78,21.7,12.49,45.26l19.83,53.51c1.94,3.67,3.93,6.6,6.33,9.48l1.69,1.75c1.35,1.34,2.32,2.58,2.85,3.71-10.09-4.4-18.37-9-26.09-14.12l-11.97-35.5-19.82-58.8c5.31-5.43,11.41-9.92,19.05-13.39-.06.53.09,1.17-.78,2.46-1.17,1.72-2.32,3.38-3.36,4.86-.1.14-.25.64-.23.77Z"/>
      <path class="cls-4" d="M645.77,290.47l5.87,3.72-12.09-35.14c.62,3.26-.11,8.94-1.85,15.44-1.12,4.19,3.82,13.16,8.07,15.97Z"/>
      <path class="cls-1" d="M677.22,307.97c.12.43-.52.43-1.25.52-2.85.36-5.96.52-10.94.48-4.24.05-8.23.05-12.47.07-1.76,0-4.32.03-6.07.03-6.63.14-11.86,0-18.65-.1-1.26-.02-4.44-.18-5.67-.44-.33-.07-1.36-.15-1.77-.86-.4-.68-.23-2.02.98-4.23.68-1.25,1.07-2.64,1.46-3.99.16-.56.03-1.24-.08-1.84-.99-3.75-2.33-6.13-4.02-9.54-2.2-4.44-4.78-8.71-7.26-13-1.09-1.88-3.38-5.58-3.38-5.58-.56-.8-1.02-.98-1.02-.98-.19-.39.07-.86-.13-2.49-2.84-24.13-18.66-20.34-17.93-20.52.3-.07.54-.22.88-.3.23-.05.35-.09.77-.22,1.94-.57,4.22-1.02,6.1-1.02,1.25,0,2.27,0,3.45.23.41.08,1.37.25,1.77.32,6.77,1.24,14.13,7.83,14.13,7.83,0,0,2.93,2.58,5.86,4.91,5.56,4.43,4.39,1.24,4.28.97-.41-1.03-.35-.99-1.19-2.39-.35-.59-.8-1.04-1.68-2.58-1.72-3.03-2.57-4.6-4.68-8.03-4.94-8.06-8.28-21.24-9-24.93-.06-.31-.43-1.87-.88-4.02-.24-1.11-.65-2.19-.88-3.3-.29-1.37-2.84-8.6-7.31-13.36-.88-.94-.21-1.94,1.48-2.5.86-.29,3.9-.62,7.12-.33,6.17.76,10.11,2.76,10.11,2.76,0,0-.09.14.53,1.44,1.32,2.75,2.2,5.63,2.89,8.57,2.32,9.93,12.72,36.56,14.25,40.4,1.56,3.93,2.59,7.99,2.7,12.28.1,4.27-.44,8.41-1.99,12.39-.56,1.43,1.11,4.69,1.11,4.69,0,0,13.42,15.25,18.16,18.2,4.27,2.66,8.66,5.11,13.27,7.13,1.46.64,2.96,1.18,4.42,1.83.72.32,2.13,1.05,2.54,1.48Z"/>
      <path class="cls-1" d="M578.74,192.8c-1.54-2.71-3.21-3.84-4.1-6.88-.11-.42.23-.87.23-.87.35-.27,1.01-.29,1.37-.23,6.19,1.35,12.67,7.66,14.33,9.38,1.16,1.2,2.1,2.61,3.19,3.88.59.69.74,1.39.35,2.2-2.3,4.68-3.19,9.81-4.69,14.74-1.67,5.48-3.68,10.84-6.05,16.06-.92,2.03-1.84,4.06-2.79,6.07-1.66,3.53-2.39,7.26-2.06,11.13.29,3.49,1.23,6.84,3.03,9.89,1.22,2.07,2.49,4.11,3.82,6.29.08.13.14.7.1.85-1.11,3.39-2.25,6.84-3.37,10.31-1.15,3.54-2.25,7.1-3.42,10.64-.48,1.47-.36,2.56.79,3.87,2.42,2.75,10.9,11.63,12.93,13.01,1.69,1.15,4.34,2.76,6.9,3.24,3.47.36,1.6,1.51,1.6,1.51-.64.45-3.03.94-7.08,1.03-6.61.25-12.49.16-19.23.21-4.02.03-8.09-.06-12.14-.13-2.62-.04-5.1-.05-7.79-.1-1.56,0-4.04-.21-5.79-.32-1.38-.08-2.35-.16-2.35-.16-1.12-.09-2.07-.1-2.11-.71.05-.95,9.05-12.48,11-17.36,1.49-3.74,2.99-7.49,4.38-11.27.87-2.37,1.58-4.81,2.29-7.23.82-2.8,1.59-5.62,2.34-8.44.86-3.2,1.68-6.42,2.5-9.63.33-1.3.65-2.6.97-3.9.87-3.53,1.79-7.04,2.6-10.58.48-2.08.79-4.2,1.21-6.3.54-2.71,1.14-5.41,1.68-8.13.56-2.78,1.09-5.57,1.63-8.36.54-2.78,1.08-5.56,1.59-8.35.46-2.48.86-4.98,1.33-7.46.43-2.26.91-4.51,1.39-6.87.01-.06-.54-.95-.57-1.01Z"/>
      <path class="cls-2" d="M196.6,185.02c.4-.66,5.95-.9,16.66-.9h15.28c19.18.13,29.44.53,30.76,1.19.53.27.79.6.79.99,0,.79-.79,2.18-2.38,4.17l-2.38,3.57,2.78,10.91c15.21,56.21,27.58,89.01,37.11,98.4,2.51,2.51,3.64,4.1,3.37,4.76-.13.53-9.59.79-28.38.79h-10.32c-7.67,0-12.57-.1-14.69-.3-2.12-.2-3.17-.7-3.17-1.49,0-.4.46-1.52,1.39-3.37.92-2.11,1.39-3.64,1.39-4.56,0-1.85-1.26-5.29-3.77-10.32-7.28-13.62-11.38-20.43-12.3-20.43-.13,0-.79,1.32-1.98,3.97-1.19,2.65-2.52,5.89-3.97,9.72-1.46,3.84-2.65,7.21-3.57,10.12-.79,2.38-1.19,4.36-1.19,5.95,0,2.25.92,4.3,2.78,6.15,1.45,1.46,2.18,2.38,2.18,2.78,0,.79-1.72,1.29-5.16,1.49-3.44.2-11.31.3-23.61.3-18.65,0-27.98-.4-27.98-1.19,0-.66,1.19-2.18,3.57-4.56,2.25-2.25,4.37-5.36,6.35-9.32,7.41-15.6,14.95-44.24,22.62-85.9l2.58-13.89-2.58-3.97c-1.72-2.64-2.44-4.38-2.18-5.05ZM229.14,211.3c-.4-.66-.79-.99-1.19-.99-.53,0-1.39,1.79-2.58,5.36-2.51,7.67-6.35,14.88-11.51,21.62-.53.79-1.16,1.66-1.89,2.58-.73.93-1.32,1.69-1.79,2.28-.47.6-.76.96-.89,1.09-.93,1.46-.47,2.18,1.39,2.18.53-.13,1.12-.26,1.79-.4,1.72-.53,3.7-.79,5.95-.79,6.75,0,14.69,3.97,23.81,11.9,2.91,2.51,4.7,3.77,5.36,3.77.13,0,.26-.07.4-.2.66-.66.53-1.72-.4-3.17-8.6-14.68-14.09-27.44-16.47-38.29-1.06-4.23-1.72-6.55-1.99-6.94Z"/>
      <path class="cls-4" d="M255.69,194.18c.86,4.23,5.78,21.7,12.49,45.26l19.83,53.51c1.94,3.67,3.93,6.6,6.33,9.48l1.69,1.75c1.35,1.34,2.32,2.58,2.85,3.71-10.09-4.4-18.37-9-26.09-14.12l-11.97-35.5-19.82-58.8c5.31-5.43,11.41-9.92,19.05-13.39-.06.53.09,1.17-.78,2.46-1.17,1.72-2.32,3.38-3.36,4.86-.1.14-.25.64-.23.77Z"/>
      <path class="cls-4" d="M267.44,290.39l5.87,3.72-12.09-35.14c.62,3.26-.11,8.94-1.85,15.44-1.12,4.19,3.82,13.16,8.07,15.97Z"/>
      <path class="cls-1" d="M298.89,307.89c.12.43-.52.43-1.25.52-2.85.36-5.96.52-10.94.48-4.24.05-8.23.05-12.47.07-1.76,0-4.32.03-6.07.03-6.63.14-11.86,0-18.65-.1-1.26-.02-4.44-.18-5.67-.44-.33-.07-1.36-.15-1.77-.86-.4-.68-.23-2.02.98-4.23.68-1.25,1.07-2.64,1.46-3.99.16-.56.03-1.24-.08-1.84-.99-3.75-2.33-6.13-4.02-9.54-2.2-4.44-4.78-8.71-7.26-13-1.09-1.88-3.38-5.58-3.38-5.58-.56-.8-1.02-.98-1.02-.98-.19-.39.07-.86-.13-2.49-2.84-24.13-18.66-20.34-17.93-20.52.3-.07.54-.22.88-.3.23-.05.35-.09.77-.22,1.94-.57,4.22-1.02,6.1-1.02,1.25,0,2.27,0,3.45.23.41.08,1.37.25,1.77.32,6.77,1.24,14.13,7.83,14.13,7.83,0,0,2.93,2.58,5.86,4.91,5.56,4.43,4.39,1.24,4.28.97-.41-1.03-.35-.99-1.19-2.39-.35-.59-.8-1.04-1.68-2.58-1.72-3.03-2.57-4.6-4.68-8.03-4.94-8.06-8.28-21.24-9-24.93-.06-.31-.43-1.87-.88-4.02-.24-1.11-.65-2.19-.88-3.3-.29-1.37-2.84-8.6-7.31-13.36-.88-.94-.21-1.94,1.48-2.5.86-.29,3.9-.62,7.12-.33,6.17.76,10.11,2.76,10.11,2.76,0,0-.09.14.53,1.44,1.32,2.75,2.2,5.63,2.89,8.57,2.32,9.93,12.72,36.56,14.25,40.4,1.56,3.93,2.59,7.99,2.7,12.28.1,4.27-.44,8.41-1.99,12.39-.56,1.43,1.11,4.69,1.11,4.69,0,0,13.42,15.25,18.16,18.2,4.27,2.66,8.66,5.11,13.27,7.13,1.46.64,2.96,1.18,4.42,1.83.72.32,2.13,1.05,2.54,1.48Z"/>
      <path class="cls-1" d="M200.41,192.73c-1.54-2.71-3.21-3.84-4.1-6.88-.11-.42.23-.87.23-.87.35-.27,1.01-.29,1.37-.23,6.19,1.35,12.67,7.66,14.33,9.38,1.16,1.2,2.1,2.61,3.19,3.88.59.69.74,1.39.35,2.2-2.3,4.68-3.19,9.81-4.69,14.74-1.67,5.48-3.68,10.84-6.05,16.06-.92,2.03-1.84,4.06-2.79,6.07-1.66,3.53-2.39,7.26-2.06,11.13.29,3.49,1.23,6.84,3.03,9.89,1.22,2.07,2.49,4.11,3.82,6.29.08.13.14.7.1.85-1.11,3.39-2.25,6.84-3.37,10.31-1.15,3.54-2.25,7.1-3.42,10.64-.48,1.47-.36,2.56.79,3.87,2.42,2.75,10.9,11.63,12.93,13.01,1.69,1.15,4.34,2.76,6.9,3.24,3.47.36,1.6,1.51,1.6,1.51-.64.45-3.03.94-7.08,1.03-6.61.25-12.49.16-19.23.21-4.02.03-8.09-.06-12.14-.13-2.62-.04-5.1-.05-7.79-.1-1.56,0-4.04-.21-5.79-.32-1.38-.08-2.35-.16-2.35-.16-1.12-.09-2.07-.1-2.11-.71.05-.95,9.05-12.48,11-17.36,1.49-3.74,2.99-7.49,4.38-11.27.87-2.37,1.58-4.81,2.29-7.23.82-2.8,1.59-5.62,2.34-8.44.86-3.2,1.68-6.42,2.5-9.63.33-1.3.65-2.6.97-3.9.87-3.53,1.79-7.04,2.6-10.58.48-2.08.79-4.2,1.21-6.3.54-2.71,1.14-5.41,1.68-8.13.56-2.78,1.09-5.57,1.63-8.36.54-2.78,1.08-5.56,1.59-8.35.46-2.48.86-4.98,1.33-7.46.43-2.26.91-4.51,1.39-6.87.01-.06-.54-.95-.57-1.01Z"/>
    </g>
  </g>
</svg>