<?xml version="1.0" standalone="yes"?>
<svg xmlns="http://www.w3.org/2000/svg" width="1080" height="1078">
<path style="fill:#ff9d02; stroke:none;" d="M370 26L369 30C363.354 29.212 360.142 31.8518 354.996 33.6566C349.448 35.6025 343.49 36.7556 338.09 39.054C333.606 40.9619 329.539 43.8234 325 45.7655C320.355 47.7528 313.776 48.5791 311 53C304.286 52.1486 298.963 58.0549 293 60.6404C281.495 65.6288 270.142 72.3177 259.258 78.4938C256.868 79.8503 255.424 82.2458 252.946 83.527C247.684 86.2479 243.743 89.3077 238.871 92.5988C235.519 94.8629 232.326 96.0107 231 100C226.551 100.35 224.39 102.628 220.985 105.339C214.586 110.434 201.746 115.996 199 124C190.66 125.263 186.267 132.075 180.783 137.64C176.834 141.647 172.445 144.124 168.09 147.495C163.87 150.76 160.394 155.236 156.715 159.081C147.349 168.866 137.355 178.693 128.665 189.09C122.942 195.939 118.2 203.752 112.87 210.886C109.416 215.509 105.056 219.337 101.704 224.166C89.7389 241.398 79.6443 259.764 69.1597 277.911C61.5745 291.039 54.0655 303.895 48.196 317.911C45.9112 323.366 42.0957 327.867 43 334C38.7959 334.901 38.1912 342.105 36.3056 345.778C32.9427 352.327 32.1961 359.084 29.6667 365.917C28.1636 369.977 25.8629 373.794 24.5 378C23.065 382.428 22.9318 387.418 21.6944 391.917C20.2431 397.193 18.169 401.862 16.5278 407C14.811 412.374 15.2586 418.627 13.6667 424C13.0361 426.128 11.5233 427.774 11.1111 430C9.77552 437.212 10.0456 444.758 8.88889 452C8.43955 454.813 6.71743 457.185 6.22222 460C5.63679 463.328 6.86938 466.765 6.27778 470C5.88994 472.121 4.47036 473.844 4.11111 476C3.40332 480.247 4.38227 484.72 3.91667 489C3.61798 491.745 2.38202 494.255 2.08333 497C0.632016 510.34 2 524.576 2 538C2 551.097 0.667328 564.985 2.08333 578C2.45681 581.433 3.82407 584.511 4 588L2 587C2.31716 589.624 3.22453 591.671 2 594L2 596C7.63122 602.008 5.5846 611.411 7.03935 618.911C8.82877 628.136 9.31062 637.866 11.4144 647C14.1013 658.666 18.9906 669.825 19 682C20.1954 681.402 19.9774 681.534 21 680C24.457 698.61 31.0112 715.996 37.1698 733.911C39.034 739.333 42.5744 744.199 43 750L46 750C47.6071 763.188 55.9786 777.501 62.2816 789C64.6357 793.295 67.7608 797.237 69 802L72 802C72.3278 806.933 73.9994 812.293 79 814C79.282 820.049 82.3268 822.09 85.2014 827.019C87.641 831.201 87.9431 834.533 93 836C93.3969 843.244 98.5174 847.756 102.816 853.17C106.021 857.207 108.388 861.496 111.795 865.464C117.162 871.715 121.79 878.627 127.049 884.961C131.403 890.203 136.553 894.781 140.795 900.17C142.752 902.656 143.976 905.572 146.144 907.911C153.022 915.333 163.638 921.671 168 931C176.364 933.324 181.229 940.13 187.019 945.985C192.151 951.177 198.282 955.429 204 959.947C226.581 977.79 250.89 993.46 275.989 1007.42C285.389 1012.65 293.769 1019.43 304.004 1023.05C308.462 1024.63 312.212 1026.76 317 1026L317 1030L322 1029C322.741 1032.46 324.815 1031.51 327.611 1033.08C333.03 1036.12 338.242 1037.35 344 1039.64C347.932 1041.2 352.128 1044.35 356.083 1045.42C359.57 1046.36 363.418 1046.16 366.972 1047.33C380.251 1051.72 393.577 1056.3 407 1060.28C408.996 1060.87 411.035 1060.36 413 1060.92C415.125 1061.52 416.796 1063.09 419 1063.56C422.999 1064.4 426.067 1062.56 428 1067C438.532 1065.64 448.327 1069.31 459 1070.79C462.973 1071.34 467.044 1070.6 471 1071.34C474.442 1071.98 477.447 1073.74 481 1073.94C486.034 1074.23 490.938 1072.58 495.996 1073.11C498.978 1073.42 501.305 1075.13 504.17 1075.73C507.928 1076.51 512.179 1076 516 1076C525.989 1076 536.09 1076 546 1076.83C549.629 1077.13 552.876 1075.98 556 1078L558 1078C562.103 1074.89 567.19 1076.62 572 1075.45C575.087 1074.69 577.774 1073.28 581 1073.05C586.724 1072.65 592.337 1074.32 598 1073.9C601.542 1073.64 604.556 1071.87 608 1071.26C611.625 1070.63 615.356 1071.28 619 1070.87C622.085 1070.52 624.911 1069.12 628 1068.8C630.564 1068.53 633.192 1069.17 635.714 1068.51C638.271 1067.85 640.362 1066.11 643.004 1065.63C659.542 1062.63 676.814 1060.48 692.714 1055.03C703.324 1051.39 714.122 1048.09 724.714 1044.46C730.991 1042.31 736.151 1038.16 743 1038C745.501 1035.82 747.708 1035.3 751 1035L752 1031L756 1032C760.03 1028.2 765.69 1027.39 770.576 1025.09C776.713 1022.19 783.285 1017 790 1016L790 1013C795.372 1012.53 798.444 1010.08 803.025 1007.57C811.255 1003.07 820.27 998.767 828.001 993.472C832.574 990.34 836.364 985.859 842 985C843.946 981.49 846.502 981.145 849.675 979.032C853.192 976.69 857.111 973.655 860.385 970.942C874.018 959.647 888.199 948.945 901.996 937.625C907.249 933.316 910.666 926.813 917 924C917.604 918.414 922.149 917.724 926.039 914.662C929.957 911.577 932.602 907.46 935.731 903.665C944.374 893.183 954.431 883.662 962.607 872.83C964.573 870.226 964.882 866.824 966.89 864.299C968.651 862.083 971.454 861.147 973.187 858.856C977.01 853.801 981.02 848.302 984.555 842.996C986.762 839.683 987.512 836.111 991 834C992.004 830.382 994.3 828.086 996.215 824.911C999.61 819.284 1002.39 813.505 1005.96 807.964C1013.03 797.023 1019.57 784.709 1025.16 773C1038.67 744.697 1049.28 715.139 1057.63 685C1059.38 678.704 1060.77 672.259 1062.5 666C1063.26 663.225 1065.01 660.845 1065.57 658C1066.69 652.355 1066.6 646.589 1067.64 641.039C1068.12 638.494 1069.85 636.428 1070.41 633.911C1070.92 631.579 1070.22 629.331 1070.39 627C1070.6 624.17 1072.21 621.758 1072.73 619C1073.47 615.053 1072.61 610.962 1073.26 607C1078.61 574.382 1080.26 540.081 1077.95 507C1077.68 503.132 1075.65 499.813 1075.19 496C1074.71 491.962 1076.07 488.034 1075.9 484C1075.67 478.844 1073.91 474.044 1073.21 469C1072.7 465.356 1073.3 461.646 1072.87 458C1072.08 451.281 1069.7 447.017 1071 440C1065.4 435.06 1066.62 425.943 1065.46 419.015C1065.07 416.691 1063.61 414.928 1062.98 412.714C1061.49 407.404 1060.83 400.544 1061 395C1059.8 395.598 1060.02 395.466 1059 397C1054.5 384.661 1052.1 371.457 1047.6 359C1044.59 350.668 1041.45 342.502 1038.47 334.17C1036.96 329.952 1034.77 326.52 1034 322L1031 322C1030.23 310.812 1023.81 300.981 1018.16 291.741C1016.17 288.486 1015.27 284.706 1013.34 281.428C1009.54 274.956 1005 269.378 1003 262C998.285 260.549 998.535 254.943 996.031 251.245C990.245 242.698 984.208 233.904 978.204 225.424C971.415 215.838 963.916 206.891 956.37 197.919C953.894 194.975 952.192 191.408 949.586 188.593C947.204 186.021 944.05 184.333 941.704 181.741C937.979 177.623 935.295 172.569 931.545 168.424C920.569 156.294 908.811 145.865 896.036 135.884C892.272 132.944 889.777 129.195 886.296 126.057C883.494 123.532 879.846 122.251 876.96 119.803C872.836 116.306 871.857 113.194 866 113C863.873 105.279 855.234 102.698 849.086 98.7415C842.632 94.588 837.216 89.4888 830.424 85.7955C818.362 79.2362 806.757 71.3824 794.816 64.5247C781.802 57.0513 767.86 51.6152 754.17 45.5841C742.33 40.3682 730.306 33.1471 717 33C715.278 28.1031 706.751 26.3812 702 27C699.945 23.8303 696.888 24.0623 693.424 23C686.019 20.7285 678.355 19.5682 671.001 17.1512C667.315 15.9399 665.208 16.514 663 13C659.088 13 656.381 13.6259 652 13L650 11C647.061 9.77551 642.187 11.4552 639 11L637 9C633.592 7.57983 628.408 10.42 625 9L623 7C619.73 6.53284 616.776 7.66528 614 6L615 5C612.694 5.54016 610.37 6.67676 607.961 6.54639C603.489 6.30444 600.132 3.09314 595.911 2.43286C591.617 1.76135 587.288 3.51282 583 3.40198C575.363 3.20459 568.33 1.02307 560.911 0.128906C540.284 -2.35693 519.308 1.02112 499 3.11182C493.345 3.69397 487.748 2.71191 482 3.36951C478.077 3.81824 474.808 6.06372 471 6.61267C458.164 8.46301 444.913 9.01685 432.039 11.2238C429.511 11.6572 427.429 13.2909 424.91 13.6868C422.608 14.0486 420.288 13.2296 418 13.7538C405.655 16.5823 393.669 21.3861 381.039 24.0895C376.848 24.9867 374.442 26.6898 370 26z"/>
<path style="fill:#010101; stroke:none;" d="M540 80C524.845 103.804 511.287 129.254 497.755 154C491.779 164.928 484.729 175.226 478.499 186C456.792 223.539 435.634 261.33 414.127 299C353.828 404.617 291.211 508.926 231.667 615C204.917 662.654 176.418 709.349 149.667 757C142.51 769.747 134.479 782.019 127.742 795C124.708 800.845 121.164 805.205 121 812C128.723 810.161 137.1 811 145 811L186 811L319 811L755 811L894 811L938 811C947.295 811 956.832 811.702 966 810L966 807C960.091 803.938 957.451 796.499 954.089 791C946.244 778.168 939.041 765.106 931.667 752C905.228 705.009 877.304 658.857 850.664 612C786.244 498.694 720.351 386.173 654.312 273.911C629.558 231.832 605.935 189.054 581.114 147C567.964 124.719 556.155 101.673 542 80L540 80M670 431C681.398 452.416 694.653 472.842 706.501 494C736.575 547.71 768.218 600.602 798.872 654C809.618 672.719 820.587 691.327 831.424 710C838.108 721.516 845.719 732.742 851 745C831.975 747.404 812.176 746 793 746L691 746L379 746L269 746L243 746C240.698 745.995 235.638 746.715 234.828 743.682C234.222 741.414 236.137 738.866 237.143 737C239.693 732.271 242.455 727.691 245.069 723C256.287 702.863 267.812 682.845 279.548 663C306.363 617.655 331.979 571.566 358.424 526C375.755 496.139 393.967 466.573 410 436C414.533 440.395 416.954 446.559 420.051 452C425.823 462.14 432.066 472.445 437 483C446.86 474.977 456.611 466.551 466 458C469.98 454.375 475.152 448.378 481 448.378C485.544 448.378 489.019 451.981 491.961 455.005C499.478 462.731 507.807 471.209 514 480C520.555 474.273 529.422 462.551 539 463.123C546.716 463.585 552.593 473.68 560.089 470.941C571.958 466.603 583.567 460.615 595 455.219C600.172 452.778 606.065 449.007 612 451.047C616.763 452.685 620.488 457.342 623.714 461C629.389 467.433 634.995 475.024 642 480C646.798 469.676 652.945 460.071 658.223 450C661.519 443.711 664.576 435.649 670 431z"/>
<path style="fill:#ff9d02; stroke:none;" d="M668 432C658.923 447.552 649.59 463.671 642 480C634.995 475.024 629.389 467.433 623.714 461C620.488 457.342 616.763 452.685 612 451.047C606.065 449.007 600.172 452.778 595 455.219C586.733 459.121 578.377 462.722 570 466.336C566.096 468.021 561.639 471.443 557.286 471.666C554.442 471.811 552.16 469.427 549.996 467.911C545.373 464.671 539.739 461.609 534 463.854C526.961 466.608 519.654 474.228 515 480C507.606 472.606 500.848 464.74 493.83 457C490.719 453.568 486.911 449.017 482 448.438C476.121 447.746 470.944 453.501 467 457.075C457.245 465.915 447.22 474.684 437 483C429.533 467.026 420.213 451.053 411 436C404.453 442.941 400.383 453.721 395.576 462C384.935 480.324 374.212 498.583 363.719 517C334.204 568.802 302.759 619.662 274.231 672C264.336 690.154 253.921 708.242 243.352 726C240.812 730.268 238.253 734.543 236.048 738.999C235.281 740.548 234.072 742.69 235.136 744.397C236.644 746.817 241.633 745.999 244 746L271 746L382 746L692 746L793 746C812.176 746 831.975 747.404 851 745C845.719 732.742 838.108 721.516 831.424 710C820.776 691.652 810.27 673.245 799.452 655C771.355 607.612 745.243 559.031 716.544 512C705.375 493.697 694.718 474.794 684.37 456C680.312 448.63 675.649 435.964 668 432z"/>
<path style="fill:#010101; stroke:none;" d="M501 599C503.9 598.095 506.895 596.767 510 597.297C519.07 598.845 521.897 610.612 530 613.867C537.263 616.785 543.695 605.487 551 605.423C556.579 605.374 563.477 612.163 568.895 609.843C571.633 608.671 572.957 605.427 574.305 603L584.139 585C595.376 564.74 605.961 543.941 617.735 524C621.064 518.361 624.329 512.686 627.579 507C629.051 504.424 631.492 501.208 631.306 498.089C631.122 494.991 628.034 492.233 626.192 489.985C621.326 484.048 615.986 477.01 609.996 472.188C604.59 467.836 598.353 472.366 593 474.836C585.028 478.514 577.036 482.114 569 485.651C564.967 487.425 560.485 490.26 556 490.563C549.077 491.031 543.523 480.772 537 483.542C528.618 487.103 523.544 499.032 514 500.461C510.354 501.008 507.44 498.267 505.004 495.956C498.858 490.126 493.872 483.138 488.035 477.001C485.97 474.829 483.359 470.67 479.961 470.752C476.386 470.837 473.396 474.716 471 476.914C465.185 482.25 458.884 487.03 453.005 492.286C450.15 494.838 446.855 497.797 447.697 502C448.483 505.926 451.408 509.578 453.346 513C457.082 519.593 460.488 526.364 464.143 533C476.299 555.07 488.811 576.948 501 599z"/>
<path style="fill:#ff9d02; stroke:none;" d="M404 735C399.761 733.296 400.406 730.298 398.91 726.424C395.277 717.014 393.93 706.948 392.576 697C390.79 683.879 393.868 666.905 400.746 655.464C405.843 646.985 413.355 640.023 418.728 631.946C424.829 622.771 427.941 612.408 430.608 602C432.716 593.772 434.994 586.617 435 578C440.549 579.648 440.767 583.896 441.883 589C444.084 599.056 446.667 610.685 444.726 621C443.887 625.459 442.601 631.905 440.725 636C434.214 650.218 422.153 661.146 415.109 675C410.138 684.775 409.387 695.444 407.675 706C406.14 715.469 404.026 725.381 404 735M659 736C654.963 734.819 654.998 730.809 653.463 727.259C652.088 724.08 652.388 721.379 651.806 718.06C650.574 711.042 648.641 704.163 647.588 697C644.955 679.089 651.835 661.624 661.542 647C665.219 641.459 670.604 637.4 674.148 631.866C680.712 621.615 682.923 611.49 685.819 600.06C687.733 592.51 689.901 586.081 690 578C696.038 579.038 696.684 584.72 697.586 590C699.318 600.13 701.454 610.634 699.741 621C697.914 632.052 692.4 642.824 685.95 651.83C681.505 658.037 675.411 664.175 672.042 671.015C662.043 691.313 661.782 714.104 659 736M376 695L373 695C371.873 690.428 369.706 685.508 369.13 680.911C368.583 676.55 369.615 672.318 369.91 668C370.508 659.28 370.612 653.018 374.68 644.999C378.838 636.802 386.67 630.6 389.88 622C392.958 613.758 395.415 606.713 397.133 598.059C397.488 596.275 398.534 594.062 400.755 595.176C403.067 596.335 403.566 599.727 403.826 602C404.59 608.693 404.032 615.494 402.495 622C398.841 637.471 387.726 647.6 381.681 662C377.291 672.455 378.56 684.246 376 695M630 692L628 692C621.696 677.411 623.069 657.185 630.38 643.089C633.767 636.559 639.111 631.789 643.236 625.946C649.035 617.732 651.789 605.92 652 596C661.525 596.74 660.368 612.469 658.289 619.576C656.664 625.133 655.756 631.56 652.93 636.675C650.561 640.963 646.206 644.097 643.467 648.17C640.613 652.414 638.222 658.262 636.263 663C632.519 672.053 633.134 682.743 630 692M433 717C430.683 704.565 427.339 689.34 431.811 677.001C436.17 664.974 446.879 656.245 452.577 645C455.865 638.51 455.603 631.889 457.215 625.005C457.592 623.395 458.74 618.473 461.454 620.176C463.243 621.298 462.9 624.225 463.1 626.001C463.561 630.102 464.986 633.813 464.992 638C465.009 649.021 460.259 660.085 454.022 669C450.931 673.418 446.601 677.058 444.279 682C442.809 685.127 442.981 688.69 442.138 692C440.881 696.937 439.152 702.106 438.259 707.089C437.417 711.788 438.734 716.004 433 717M693 717L688 717C683.984 699.431 682.599 681.212 693.36 666C696.024 662.234 697.419 657.523 702 656C702.825 650.328 706.592 646.731 709.167 641.83C711.056 638.236 711.597 633.975 712.05 630C712.33 627.541 712.165 621.669 714.544 620.176C717.418 618.373 717.87 623.482 718.024 625.005C718.717 631.88 720.896 637.957 719.486 645C716.492 659.956 706.26 668.829 699.88 682.004C694.96 692.163 693 705.852 693 717z"/>
</svg>
